<svg fill="none" height="100%" width="100%" viewBox="0 0 250 250" xmlns:xlink="http://www.w3.org/1999/xlink" xmlns="http://www.w3.org/2000/svg"><defs><mask id="i0"><rect fill="white" height="100%" width="100%" /><path fill="white" d="M111.477,179.381C107.737,179.381,104.145,177.897,101.495,175.246C101.495,175.246,55.605,129.356,55.605,129.356C50.092,123.843,50.092,114.904,55.605,109.391C61.118,103.878,70.057,103.877,75.571,109.391C75.571,109.391,111.061,144.881,111.061,144.881C111.061,144.881,173.859,76.719,173.859,76.719C179.142,70.984,188.073,70.619,193.808,75.902C199.542,81.185,199.908,90.117,194.625,95.851C194.625,95.851,121.861,174.829,121.861,174.829C119.256,177.656,115.611,179.299,111.767,179.378C111.671,179.38,111.573,179.381,111.477,179.381Z" /></mask></defs><g opacity="0" visibility="hidden" id="i1"><animate repeatCount="indefinite" begin="0s" calcMode="discrete" dur="2.5s" values="hidden; visible; visible" keyTimes="0; 0.2; 1" attributeName="visibility" /><animate repeatCount="indefinite" attributeName="opacity" dur="2.5s" begin="0s" fill="freeze" values="0; 0; 1; 1; 0.01; 0.01" keyTimes="0; 0.173333; 0.266666; 0.833333; 0.88; 1" keySplines="0 0 1 1; 0.24 0 0.53 1; 0.24 0 0.667 1; 0.167 0 0.833 1; 0 0 1 1" calcMode="spline" /><g transform="translate(153,125)"><animateTransform repeatCount="indefinite" type="translate" attributeName="transform" dur="2.5s" begin="0s" calcMode="spline" values="153 125; 153 125; 125 125; 125 125; 153 125; 153 125" keyTimes="0; 0.206667; 0.326667; 0.773333; 0.88; 1" keySplines="0 0 1 1; 0.25 0 0.75 1; 0 0 1 1; 0.167 0 0.833 1; 0 0 1 1" fill="freeze" /><g transform="rotate(4)"><animateTransform repeatCount="indefinite" type="rotate" attributeName="transform" dur="2.5s" begin="0s" calcMode="spline" values="4; 4; 0; 0; 4; 4" keyTimes="0; 0.206667; 0.326667; 0.773333; 0.88; 1" keySplines="0 0 1 1; 0.25 0 0.75 1; 0.25 0 0.667 1; 0.167 0 0.833 1; 0 0 1 1" fill="freeze" /><g transform="scale(0.7,0.7)"><animateTransform repeatCount="indefinite" type="scale" attributeName="transform" dur="2.5s" begin="0s" calcMode="spline" values="0.7 0.7; 0.7 0.7; 1.05 1.05; 1 1; 1 1" keyTimes="0; 0.186667; 0.293333; 0.36; 1" keySplines="0 0 1 1; 0.25 0 0.75 1; 0.25 0 0.75 1; 0 0 1 1" fill="freeze" /><g transform="translate(-125,-125)"><g id="i2" transform="matrix(1,0,0,1,143.607,124.993)"><path fill="#002b2b" d="M73.269,-85.713C73.19,-85.85,73.106,-85.985,73.017,-86.117C70.914,-89.221,66.619,-89.714,62.874,-89.912C24.407,-91.943,-14.061,-93.975,-52.528,-96.007C-55.102,-96.143,-57.755,-96.268,-60.185,-95.407C-66.009,-93.342,-65.384,-87.001,-65.658,-81.951C-66.008,-75.477,-66.36,-69.003,-66.71,-62.528C-67.412,-49.58,-68.114,-36.632,-68.815,-23.683C-69.517,-10.735,-70.218,2.214,-70.92,15.162C-71.622,28.11,-72.324,41.058,-73.025,54.007C-73.436,61.582,-73.846,69.156,-74.256,76.731C-74.487,80.975,-74.329,86.037,-70.772,88.365C-68.98,89.538,-66.728,89.686,-64.588,89.8C-25.186,91.882,14.215,93.964,53.618,96.046C56.621,96.204,59.931,96.268,62.261,94.369C64.898,92.22,65.283,88.406,65.466,85.01C68.4,30.524,71.334,-23.962,74.269,-78.448C74.403,-80.924,74.487,-83.588,73.269,-85.713Z" /></g></g></g></g></g></g><g visibility="visible" id="i3"><animate repeatCount="indefinite" begin="0s" calcMode="discrete" dur="2.5s" values="visible; hidden; hidden" keyTimes="0; 0.513; 1" attributeName="visibility" /><animate repeatCount="indefinite" attributeName="opacity" dur="2.5s" begin="0s" fill="freeze" values="1; 1; 0; 0" keyTimes="0; 0.28; 0.286667; 1" keySplines="0 0 1 1; 0 0 1 1; 0 0 1 1" calcMode="spline" /><g transform="translate(125,125)"><animateTransform repeatCount="indefinite" type="translate" attributeName="transform" dur="2.5s" begin="0s" calcMode="spline" values="125 125; 148 125; 148 125; 88.079 122.833; 88.079 122.833" keyTimes="0; 0.113333; 0.16; 0.28; 1" keySplines="0.33 0 0.67 1; 0 0 1 1; 0.33 0 0.667 1; 0 0 1 1" fill="freeze" /><g transform="rotate(4)"><animateTransform repeatCount="indefinite" type="rotate" attributeName="transform" dur="2.5s" begin="0s" calcMode="spline" values="4; 15; 15; 1; 1" keyTimes="0; 0.113333; 0.16; 0.28; 1" keySplines="0.33 0 0.67 1; 0.33 0 0.67 1; 0.33 0 0.667 1; 0 0 1 1" fill="freeze" /><g transform="scale(1,1) translate(-107.969,-124.018)"><g id="i4" transform="matrix(1,0,0,1,107.969,124.018)"><path fill="#e5e6eb" d="M54.159,77.318C54.159,77.318,-43.674,83.689,-43.674,83.689C-50.441,84.13,-56.283,79.002,-56.723,72.236C-56.723,72.236,-65.613,-64.268,-65.613,-64.268C-66.053,-71.035,-60.926,-76.876,-54.16,-77.317C-54.16,-77.317,43.674,-83.688,43.674,-83.688C50.439,-84.129,56.282,-79.001,56.722,-72.235C56.722,-72.235,65.612,64.268,65.612,64.268C66.053,71.034,60.925,76.877,54.159,77.318Z" /></g><g id="i5" transform="matrix(1,0,0,1,107.969,124.018)"><path fill="#ffffff" d="M51.721,72.828C51.721,72.828,-41.839,78.921,-41.839,78.921C-47.304,79.276,-52.024,75.136,-52.38,69.669C-52.38,69.669,-60.973,-62.287,-60.973,-62.287C-61.329,-67.754,-57.187,-72.473,-51.721,-72.829C-51.721,-72.829,41.838,-78.922,41.838,-78.922C47.304,-79.277,52.024,-75.135,52.38,-69.669C52.38,-69.669,60.973,62.286,60.973,62.286C61.329,67.752,57.187,72.472,51.721,72.828Z" /></g><g id="i6" transform="matrix(1,0,0,1,75.317,77.865)"><path fill="#92a7fe" fill-rule="evenodd" d="M-12.728,-10.383C-13.171,-16.086,-8.7,-21.05,-2.74,-21.47C3.22,-21.889,8.41,-17.606,8.854,-11.903C9.296,-6.2,4.824,-1.235,-1.136,-0.816C-7.095,-0.396,-12.286,-4.68,-12.728,-10.383ZM3.42,2.572C3.42,2.572,-5.118,3.173,-5.118,3.173C-12.835,3.717,-18.625,10.144,-18.052,17.529C-17.858,20.019,-15.592,21.889,-12.99,21.706C-12.99,21.706,14.069,19.801,14.069,19.801C16.672,19.617,18.625,17.449,18.432,14.959C17.858,7.574,11.137,2.029,3.42,2.572Z" /></g><g id="i2" transform="matrix(1,0,0,1,107.105,145.872)"><path fill="#e5e6eb" fill-rule="evenodd" d="M41.384,-36.542C41.384,-36.542,-45.609,-30.877,-45.609,-30.877C-47.234,-30.771,-48.637,-32.002,-48.743,-33.628C-48.849,-35.253,-47.617,-36.656,-45.992,-36.762C-45.992,-36.762,41.001,-42.427,41.001,-42.427C42.626,-42.533,44.029,-41.301,44.135,-39.676C44.241,-38.051,43.009,-36.648,41.384,-36.542ZM45.011,-26.225C45.011,-26.225,45.011,-26.225,45.011,-26.225C44.905,-27.85,43.502,-29.082,41.877,-28.976C41.877,-28.976,-45.116,-23.311,-45.116,-23.311C-46.741,-23.205,-47.973,-21.801,-47.867,-20.176C-47.761,-18.551,-46.358,-17.32,-44.733,-17.425C-44.733,-17.425,42.26,-23.09,42.26,-23.09C43.885,-23.196,45.117,-24.599,45.011,-26.225ZM46,-11.05C46,-11.05,46,-11.05,46,-11.05C45.893,-12.675,44.49,-13.907,42.865,-13.801C42.865,-13.801,-44.128,-8.136,-44.128,-8.136C-45.753,-8.03,-46.985,-6.627,-46.879,-5.001C-46.773,-3.376,-45.37,-2.145,-43.745,-2.25C-43.745,-2.25,43.249,-7.915,43.249,-7.915C44.874,-8.022,46.105,-9.425,46,-11.05ZM48.526,27.743C48.526,27.743,47.464,11.451,47.464,11.451C47.141,6.478,42.846,2.709,37.874,3.033C37.874,3.033,-36.994,7.908,-36.994,7.908C-41.968,8.232,-45.737,12.526,-45.413,17.5C-45.413,17.5,-44.352,33.792,-44.352,33.792C-44.029,38.764,-39.734,42.534,-34.761,42.21C-34.761,42.21,40.107,37.334,40.107,37.334C45.081,37.011,48.849,32.717,48.526,27.743Z" /></g></g></g></g></g><g id="i7"><g transform="translate(125,125)"><animateTransform repeatCount="indefinite" type="translate" attributeName="transform" dur="2.5s" begin="0s" calcMode="spline" values="125 125; 101.079 122.833; 101.079 122.833; 88.079 122.833; 108.079 122.833; 108.079 122.833; 125 125; 125 125" keyTimes="0; 0.113333; 0.16; 0.28; 0.373333; 0.773333; 0.88; 1" keySplines="0.33 0 0.67 1; 0 0 1 1; 0.33 0 0.667 1; 0.333 0 0.667 1; 0 0 1 1; 0.25 0 0.75 1; 0 0 1 1" fill="freeze" /><g transform="rotate(4)"><animateTransform repeatCount="indefinite" type="rotate" attributeName="transform" dur="2.5s" begin="0s" calcMode="spline" values="4; -5; -5; 1; 0; 0; 4; 4" keyTimes="0; 0.113333; 0.16; 0.28; 0.373333; 0.773333; 0.88; 1" keySplines="0.33 0 0.67 1; 0.33 0 0.67 1; 0.33 0 0.667 1; 0.333 0 0.667 1; 0.167 0 0.75 1; 0.25 0 0.75 1; 0 0 1 1" fill="freeze" /><g transform="scale(1,1)"><animateTransform repeatCount="indefinite" type="scale" attributeName="transform" dur="2.5s" begin="0s" calcMode="spline" values="1 1; 1 1; 0.97 0.97; 1 1; 1 1" keyTimes="0; 0.313333; 0.34; 0.373333; 1" keySplines="0 0 1 1; 0.25 0 0.75 1; 0.25 0 0.75 1; 0 0 1 1" fill="freeze" /><g transform="translate(-107.969,-124.018)"><g id="i4" transform="matrix(1,0,0,1,107.969,124.018)"><path fill="#e5e6eb" d="M54.159,77.318C54.159,77.318,-43.674,83.689,-43.674,83.689C-50.441,84.13,-56.283,79.002,-56.723,72.236C-56.723,72.236,-65.613,-64.268,-65.613,-64.268C-66.053,-71.035,-60.926,-76.876,-54.16,-77.317C-54.16,-77.317,43.674,-83.688,43.674,-83.688C50.439,-84.129,56.282,-79.001,56.722,-72.235C56.722,-72.235,65.612,64.268,65.612,64.268C66.053,71.034,60.925,76.877,54.159,77.318Z" /></g><g id="i5" transform="matrix(1,0,0,1,107.969,124.018)"><path fill="#ffffff" d="M51.721,72.828C51.721,72.828,-41.839,78.921,-41.839,78.921C-47.304,79.276,-52.024,75.136,-52.38,69.669C-52.38,69.669,-60.973,-62.287,-60.973,-62.287C-61.329,-67.754,-57.187,-72.473,-51.721,-72.829C-51.721,-72.829,41.838,-78.922,41.838,-78.922C47.304,-79.277,52.024,-75.135,52.38,-69.669C52.38,-69.669,60.973,62.286,60.973,62.286C61.329,67.752,57.187,72.472,51.721,72.828Z" /></g><g id="i6" transform="matrix(1,0,0,1,75.317,77.865)"><path fill="#92a7fe" fill-rule="evenodd" d="M-12.728,-10.383C-13.171,-16.086,-8.7,-21.05,-2.74,-21.47C3.22,-21.889,8.41,-17.606,8.854,-11.903C9.296,-6.2,4.824,-1.235,-1.136,-0.816C-7.095,-0.396,-12.286,-4.68,-12.728,-10.383ZM3.42,2.572C3.42,2.572,-5.118,3.173,-5.118,3.173C-12.835,3.717,-18.625,10.144,-18.052,17.529C-17.858,20.019,-15.592,21.889,-12.99,21.706C-12.99,21.706,14.069,19.801,14.069,19.801C16.672,19.617,18.625,17.449,18.432,14.959C17.858,7.574,11.137,2.029,3.42,2.572Z" /></g><g id="i2" transform="matrix(1,0,0,1,107.105,145.872)"><path fill="#e5e6eb" fill-rule="evenodd" d="M41.384,-36.542C41.384,-36.542,-45.609,-30.877,-45.609,-30.877C-47.234,-30.771,-48.637,-32.002,-48.743,-33.628C-48.849,-35.253,-47.617,-36.656,-45.992,-36.762C-45.992,-36.762,41.001,-42.427,41.001,-42.427C42.626,-42.533,44.029,-41.301,44.135,-39.676C44.241,-38.051,43.009,-36.648,41.384,-36.542ZM45.011,-26.225C45.011,-26.225,45.011,-26.225,45.011,-26.225C44.905,-27.85,43.502,-29.082,41.877,-28.976C41.877,-28.976,-45.116,-23.311,-45.116,-23.311C-46.741,-23.205,-47.973,-21.801,-47.867,-20.176C-47.761,-18.551,-46.358,-17.32,-44.733,-17.425C-44.733,-17.425,42.26,-23.09,42.26,-23.09C43.885,-23.196,45.117,-24.599,45.011,-26.225ZM46,-11.05C46,-11.05,46,-11.05,46,-11.05C45.893,-12.675,44.49,-13.907,42.865,-13.801C42.865,-13.801,-44.128,-8.136,-44.128,-8.136C-45.753,-8.03,-46.985,-6.627,-46.879,-5.001C-46.773,-3.376,-45.37,-2.145,-43.745,-2.25C-43.745,-2.25,43.249,-7.915,43.249,-7.915C44.874,-8.022,46.105,-9.425,46,-11.05ZM48.526,27.743C48.526,27.743,47.464,11.451,47.464,11.451C47.141,6.478,42.846,2.709,37.874,3.033C37.874,3.033,-36.994,7.908,-36.994,7.908C-41.968,8.232,-45.737,12.526,-45.413,17.5C-45.413,17.5,-44.352,33.792,-44.352,33.792C-44.029,38.764,-39.734,42.534,-34.761,42.21C-34.761,42.21,40.107,37.334,40.107,37.334C45.081,37.011,48.849,32.717,48.526,27.743Z" /></g><g id="i8" transform="matrix(1,0,0,1,132.788,122.856)"><path fill="#e5e6eb" fill-opacity="0" d="M-36.517,78.121C-36.517,78.121,27.134,73.975,27.134,73.975C32.472,73.628,36.517,69.019,36.17,63.683C36.17,63.683,27.545,-68.739,27.545,-68.739C27.198,-74.076,22.589,-78.121,17.252,-77.774C17.252,-77.774,-25.786,-74.971,-25.786,-74.971C-25.786,-74.971,-21.807,-70.467,-21.807,-70.467C-18.555,-66.785,-16.836,-61.997,-17.004,-57.087C-17.004,-57.087,-20.845,55.098,-20.845,55.098C-21.011,59.952,-23.009,64.564,-26.438,68.005C-26.438,68.005,-36.517,78.121,-36.517,78.121Z"><animate repeatCount="indefinite" attributeName="fill-opacity" dur="2.5s" begin="0s" fill="freeze" values="0; 0; 1; 1; 0; 0" keyTimes="0; 0.28; 0.373334; 0.773333; 0.88; 1" keySplines="0 0 1 1; 0.25 0 0.75 1; 0.25 0 0.833 1; 0 0 1 1; 0 0 1 1" calcMode="spline" /></path></g></g></g></g></g></g><g opacity="0" visibility="hidden" id="i9"><animate repeatCount="indefinite" begin="0s" calcMode="discrete" dur="2.5s" values="hidden; visible; visible" keyTimes="0; 0.2; 1" attributeName="visibility" /><animate repeatCount="indefinite" attributeName="opacity" dur="2.5s" begin="0s" fill="freeze" values="0; 0; 1; 1; 0.01; 0.01" keyTimes="0; 0.173333; 0.266666; 0.846667; 0.88; 1" keySplines="0 0 1 1; 0.24 0 0.53 1; 0.24 0 0.667 1; 0.167 0 0.833 1; 0 0 1 1" calcMode="spline" /><g transform="translate(153,125)"><animateTransform repeatCount="indefinite" type="translate" attributeName="transform" dur="2.5s" begin="0s" calcMode="spline" values="153 125; 153 125; 125 125; 125 125; 153 125; 153 125" keyTimes="0; 0.206667; 0.326667; 0.773333; 0.88; 1" keySplines="0 0 1 1; 0.25 0 0.75 1; 0 0 1 1; 0.167 0 0.833 1; 0 0 1 1" fill="freeze" /><g transform="rotate(4)"><animateTransform repeatCount="indefinite" type="rotate" attributeName="transform" dur="2.5s" begin="0s" calcMode="spline" values="4; 4; 0; 0; 4; 4" keyTimes="0; 0.206667; 0.326667; 0.773333; 0.88; 1" keySplines="0 0 1 1; 0.25 0 0.75 1; 0.25 0 0.667 1; 0.167 0 0.833 1; 0 0 1 1" fill="freeze" /><g transform="scale(0.7,0.7)"><animateTransform repeatCount="indefinite" type="scale" attributeName="transform" dur="2.5s" begin="0s" calcMode="spline" values="0.7 0.7; 0.7 0.7; 1.05 1.05; 1 1; 1 1" keyTimes="0; 0.186667; 0.293333; 0.36; 1" keySplines="0 0 1 1; 0.25 0 0.75 1; 0.25 0 0.75 1; 0 0 1 1" fill="freeze" /><g transform="translate(-125,-125)"><g id="i6" transform="matrix(1,0,0,1,154.926,125.682)"><path fill="#4668f1" d="M55.916,-82.36C55.227,-83.106,54.279,-83.546,53.25,-83.6C53.25,-83.6,-42.043,-88.633,-42.043,-88.633C-42.043,-88.633,-31.995,-71.851,-31.995,-71.851C-31.12,-70.239,-30.679,-68.426,-30.761,-66.589C-30.761,-66.589,-36.433,61.005,-36.433,61.005C-36.551,63.651,-37.83,65.819,-39.769,67.615C-39.797,67.64,-39.817,67.67,-39.845,67.695C-39.845,67.695,-56.956,83.213,-56.956,83.213C-56.956,83.213,43.976,88.544,43.976,88.544C43.976,88.544,44.023,88.546,44.023,88.546C46.122,88.633,47.919,87.045,48.029,85.008C48.029,85.008,56.903,-79.654,56.903,-79.654C56.957,-80.654,56.606,-81.615,55.916,-82.36Z" /></g><g id="i2" transform="matrix(1,0,0,1,182.788,69.441)"><path fill="#ffffff" fill-rule="evenodd" d="M20.785,-5.953C20.785,-5.953,20.783,-5.905,20.783,-5.905C20.653,-3.491,18.592,-1.639,16.178,-1.767C16.178,-1.767,-16.644,-3.5,-16.644,-3.5C-19.051,-3.627,-20.914,-5.7,-20.784,-8.107C-20.654,-10.521,-18.593,-12.373,-16.179,-12.245C-16.179,-12.245,16.691,-10.509,16.691,-10.509C19.08,-10.383,20.914,-8.342,20.785,-5.953ZM15.887,3.499C15.887,3.499,-10.461,2.107,-10.461,2.107C-12.863,1.98,-14.935,3.842,-15.065,6.245C-15.065,6.245,-15.067,6.293,-15.067,6.293C-15.196,8.674,-13.353,10.724,-10.972,10.85C-10.972,10.85,15.471,12.247,15.471,12.247C17.859,12.373,19.897,10.541,20.025,8.154C20.025,8.154,20.028,8.106,20.028,8.106C20.158,5.699,18.294,3.626,15.887,3.499Z" /></g></g></g></g></g></g><g opacity="0" visibility="hidden" id="i10"><animate repeatCount="indefinite" begin="0s" calcMode="discrete" dur="2.5s" values="hidden; visible; hidden; hidden" keyTimes="0; 0.533; 0.987; 1" attributeName="visibility" /><animate repeatCount="indefinite" attributeName="opacity" dur="2.5s" begin="0s" fill="freeze" values="0; 0; 1; 1; 0; 0" keyTimes="0; 0.533333; 0.58; 0.753333; 0.82; 1" keySplines="0 0 1 1; 0 0 1 1; 0.167 0 0.75 1; 0.25 0 0.75 1; 0 0 1 1" calcMode="spline" /><g transform="translate(185.163,160.599)"><g transform="scale(0,0)"><animateTransform repeatCount="indefinite" type="scale" attributeName="transform" dur="2.5s" begin="0s" calcMode="spline" values="0 0; 0 0; 1.1 1.1; 1 1; 1 1; 0 0; 0 0" keyTimes="0; 0.533333; 0.6; 0.666667; 0.753333; 0.84; 1" keySplines="0 0 1 1; 0.25 0 0.75 1; 0.25 0 0.75 1; 0.25 0 0.75 1; 0.25 0 0.75 1; 0 0 1 1" fill="freeze" /><g transform="translate(-185.163,-160.599)"><g id="i6" transform="matrix(1,0,0,1,185.163,160.599)"><path fill="#ffffff" d="M0,40.955C22.619,40.955,40.955,22.618,40.955,-0.001C40.955,-22.62,22.619,-40.956,0,-40.956C-22.619,-40.956,-40.955,-22.62,-40.955,-0.001C-40.955,22.618,-22.619,40.955,0,40.955Z" /></g><g id="i2" transform="matrix(1,0,0,1,185.164,160.599)"><path fill="#00c6ff" d="M0,35.322C19.508,35.322,35.321,19.508,35.321,0C35.321,-19.507,19.508,-35.322,0,-35.322C-19.508,-35.322,-35.321,-19.507,-35.321,0C-35.321,19.508,-19.508,35.322,0,35.322Z" /></g></g></g></g></g><g opacity="0" visibility="hidden" id="i11"><animate repeatCount="indefinite" begin="0s" calcMode="discrete" dur="2.5s" values="hidden; visible; hidden; hidden" keyTimes="0; 0.607; 0.787; 1" attributeName="visibility" /><animate repeatCount="indefinite" attributeName="opacity" dur="2.5s" begin="0s" fill="freeze" values="0; 0; 1; 1; 0; 0" keyTimes="0; 0.606667; 0.666667; 0.733333; 0.78; 1" keySplines="0 0 1 1; 0 0 1 1; 0 0 1 1; 0 0 1 1; 0 0 1 1" calcMode="spline" /><g transform="translate(184.375,161.875) scale(0.348,0.348) translate(-125,-125)"><g mask="url(#i0)" id="i12"><rect y="0" x="0" fill="#ffffff" height="250" width="250" /></g></g></g><g opacity="0" visibility="hidden" id="i13"><animate repeatCount="indefinite" begin="0s" calcMode="discrete" dur="2.5s" values="hidden; visible; hidden; hidden" keyTimes="0; 0.533; 0.9; 1" attributeName="visibility" /><animate repeatCount="indefinite" attributeName="opacity" dur="2.5s" begin="0s" fill="freeze" values="0; 0; 1; 1; 0; 0" keyTimes="0; 0.533333; 0.626667; 0.746667; 0.853333; 1" keySplines="0 0 1 1; 0.333 0 0.667 1; 0.333 0 0.667 1; 0.333 0 0.667 1; 0 0 1 1" calcMode="spline" /><g transform="translate(41,85.152)"><g transform="rotate(0)"><animateTransform repeatCount="indefinite" type="rotate" attributeName="transform" dur="2.5s" begin="0s" calcMode="spline" values="0; 0; 80; 80" keyTimes="0; 0.533333; 0.853333; 1" keySplines="0 0 1 1; 0.333 0 0.667 1; 0 0 1 1" fill="freeze" /><g transform="scale(0,0)"><animateTransform repeatCount="indefinite" type="scale" attributeName="transform" dur="2.5s" begin="0s" calcMode="spline" values="0 0; 0 0; 1.2 1.2; 1.2 1.2; 0 0; 0 0" keyTimes="0; 0.533333; 0.626667; 0.746667; 0.853333; 1" keySplines="0 0 1 1; 0.333 0 0.667 1; 0.333 0 0.667 1; 0.333 0 0.667 1; 0 0 1 1" fill="freeze" /><g transform="translate(-49,-205.5)"><g id="i2" transform="matrix(1,0,0,1,49.098,206.159)"><path fill="#3d64ff" fill-rule="evenodd" d="M0.12,-17.919C0.12,-17.919,-2.37,-9.462,-2.37,-9.462C-2.865,-7.772,-3.795,-6.241,-5.068,-5.023C-6.312,-3.795,-7.852,-2.906,-9.538,-2.443C-9.538,-2.443,-17.993,-0.195,-17.993,-0.195C-17.993,-0.195,-9.507,2.294,-9.507,2.294C-7.828,2.783,-6.3,3.691,-5.068,4.933C-3.833,6.184,-2.945,7.734,-2.49,9.432C-2.49,9.432,-0.12,17.919,-0.12,17.919C-0.12,17.919,2.368,9.462,2.368,9.462C2.857,7.783,3.766,6.255,5.008,5.022C6.258,3.796,7.794,2.899,9.476,2.414C9.476,2.414,17.993,0.045,17.993,0.045C17.993,0.045,9.536,-2.415,9.536,-2.415C6.107,-3.409,3.44,-6.11,2.489,-9.551C2.489,-9.551,0.12,-17.919,0.12,-17.919Z" /></g></g></g></g></g></g></svg>