<svg fill="none" height="100%" width="100%" viewBox="0 0 3200 3200" xmlns:xlink="http://www.w3.org/1999/xlink" xmlns="http://www.w3.org/2000/svg"><defs><linearGradient id="i0" gradientUnits="userSpaceOnUse" spreadMethod="pad" x2="3800.439" y2="1068.958" x1="3486.279" y1="76.45"><stop offset="0%" stop-color="#ff9085" /><stop offset="50%" stop-color="#fd80a0" /><stop offset="100%" stop-color="#fb6fbb" /></linearGradient><clipPath id="i1"><path d="M761.254,1614.179C761.254,1614.179,993.216,1670.744,993.216,1670.744C1014.736,1641.203,1046.761,1584.834,1001.872,1558.068C939.463,1520.854,967.768,1401.724,996.864,1364.391C1032.876,1318.185,1114.52,1208.873,1018.944,1149.825C939.378,1100.667,877.987,1085.209,900.008,972.356C922.029,859.503,878.779,774.723,776.148,755.882C668.145,736.055,616.688,572.655,517.714,598.008C345.258,642.185,420.795,922.169,587.325,1039.761C753.856,1157.353,631.285,1197.135,603.333,1286.985C565.172,1409.649,740.022,1425.48,772.114,1485.544C797.273,1532.63,777.482,1583.859,761.254,1614.179Z" /></clipPath><linearGradient id="i2" gradientUnits="userSpaceOnUse" spreadMethod="pad" x2="-2410.194" y2="-2751.356" x1="-2920.944" y1="-1299.75"><stop offset="0%" stop-color="#ffc444" /><stop offset="49.8%" stop-color="#f99a4d" /><stop offset="99.6%" stop-color="#f36f56" /></linearGradient><clipPath id="i3"><path d="M-539.245,159.37C-539.245,159.37,-795.803,158.499,-795.803,158.499C-795.803,158.499,-843.651,26.727,-780.463,-65.939C-651.541,-255.006,-826.129,-354.725,-893.006,-407.43C-993.862,-486.914,-1048.074,-600.944,-899.219,-650.001C-750.364,-699.058,-898.998,-929.998,-1080.379,-1034.89C-1257.873,-1137.534,-1177.833,-1512.279,-773.27,-1325.393C-531.666,-1213.785,-570.437,-957.356,-559.231,-823.207C-548.025,-689.058,-348.606,-677.285,-417.425,-513.687C-476.209,-373.945,-587.341,-272.281,-503.121,-175.785C-418.9,-79.289,-410.521,28.612,-539.245,159.37Z" /></clipPath><linearGradient id="i4" gradientUnits="userSpaceOnUse" spreadMethod="pad" x2="3224.948" y2="-2854.345" x1="3751.683" y1="-1144.488"><stop offset="0%" stop-color="#61bb2f" /><stop offset="49.8%" stop-color="#6fce3b" /><stop offset="99.6%" stop-color="#6dc23e" /></linearGradient><clipPath id="i5"><path d="M2165.169,1826.285C2165.169,1826.285,1959.959,1773.429,1959.959,1773.429C1959.959,1773.429,1907.104,1619.704,1982.96,1578.732C2058.816,1537.759,2029.77,1390.136,2023.411,1309.624C2006.156,1091.175,2242.223,1111.031,2242.488,828.544C2242.558,753.411,2217.57,610.104,2280.914,550.262C2353.081,482.085,2405.766,548.964,2452.168,491.952C2524.693,402.844,2642.384,370.879,2712.537,462.583C2781.775,553.091,2697.645,733.259,2488.502,878.066C2350.229,998.947,2348.069,1035.137,2358.952,1123.265C2366.575,1184.994,2425.457,1345.799,2341.67,1410.011C2257.883,1474.223,2193.845,1543.609,2226.126,1613.324C2275.245,1719.403,2165.169,1826.285,2165.169,1826.285Z" /></clipPath><linearGradient id="i6" gradientUnits="userSpaceOnUse" spreadMethod="pad" x2="544.499" y2="181.841" x1="1150.157" y1="-597.513"><stop offset="0%" stop-color="#aa80f9" /><stop offset="49.8%" stop-color="#8672e8" /><stop offset="99.6%" stop-color="#6165d7" /></linearGradient><clipPath id="i7"><path d="M292.922,541.63C292.922,541.63,537.737,618.365,537.737,618.365C537.737,618.365,623.185,507.225,590.97,399.792C525.242,180.596,721.809,138.327,801.49,108.307C921.657,63.034,1007.806,-29.268,880.749,-121.033C753.692,-212.798,965.19,-387.994,1169.795,-433.14C1370.016,-477.318,1407.017,-858.726,964.885,-802.897C700.845,-769.556,660.276,-513.406,609.037,-388.923C557.798,-264.44,364.151,-313.507,380.289,-136.759C394.073,14.216,469.27,144.72,359.817,211.238C250.364,277.756,209.754,378.073,292.922,541.63Z" /></clipPath><linearGradient id="i8" gradientUnits="userSpaceOnUse" spreadMethod="pad" x2="171.84" y2="-1420.566" x1="733.945" y1="-544.311"><stop offset="0%" stop-color="#ffc444" /><stop offset="49.8%" stop-color="#f99a4d" /><stop offset="99.6%" stop-color="#f36f56" /></linearGradient><clipPath id="i9"><path d="M2131.858,2274.14C2131.858,2274.14,1893.161,2279.557,1893.161,2279.557C1878.489,2246.083,1859.319,2184.151,1908.91,2167.652C1977.856,2144.713,1975.804,2022.283,1955.406,1979.572C1930.16,1926.709,1873.904,1802.411,1979.933,1765.272C2068.201,1734.354,2131.48,1732.443,2134.215,1617.494C2136.95,1502.545,2197.402,1429.035,2301.684,1432.68C2411.425,1436.516,2496.781,1287.984,2587.998,1334.006C2746.939,1414.197,2613.021,1671.419,2425.118,1750.494C2237.215,1829.568,2348.378,1894.75,2356.377,1988.507C2367.297,2116.505,2193.129,2094.408,2148.884,2146.176C2114.198,2186.759,2122.522,2241.042,2131.858,2274.14Z" /></clipPath><linearGradient id="i10" gradientUnits="userSpaceOnUse" spreadMethod="pad" x2="659.662" y2="-0.729" x1="-661.282" y1="-0.729"><stop offset="0%" stop-color="#ff9085" /><stop offset="50%" stop-color="#fd80a0" /><stop offset="100%" stop-color="#fb6fbb" /></linearGradient><linearGradient id="i11" gradientUnits="userSpaceOnUse" spreadMethod="pad" x2="588.97" y2="1203.808" x1="-568.681" y1="-1163.328"><stop offset="0%" stop-color="#aa80f9" /><stop offset="49.8%" stop-color="#6fce3b" /><stop offset="99.6%" stop-color="#61b930" /></linearGradient><linearGradient id="i12" gradientUnits="userSpaceOnUse" spreadMethod="pad" x2="480.956" y2="984.681" x1="-676.695" y1="-1382.457"><stop offset="0%" stop-color="#aa80f9" /><stop offset="49.8%" stop-color="#8672e8" /><stop offset="99.6%" stop-color="#6165d7" /></linearGradient><linearGradient id="i13" gradientUnits="userSpaceOnUse" spreadMethod="pad" x2="453.247" y2="926.824" x1="-704.404" y1="-1440.312"><stop offset="0%" stop-color="#aa80f9" /><stop offset="49.8%" stop-color="#8672e8" /><stop offset="99.6%" stop-color="#6165d7" /></linearGradient><linearGradient id="i14" gradientUnits="userSpaceOnUse" spreadMethod="pad" x2="424.781" y2="868.942" x1="-732.869" y1="-1498.193"><stop offset="0%" stop-color="#aa80f9" /><stop offset="49.8%" stop-color="#8672e8" /><stop offset="99.6%" stop-color="#6165d7" /></linearGradient><linearGradient id="i15" gradientUnits="userSpaceOnUse" spreadMethod="pad" x2="396.546" y2="812.039" x1="-761.106" y1="-1555.098"><stop offset="0%" stop-color="#aa80f9" /><stop offset="49.8%" stop-color="#8672e8" /><stop offset="99.6%" stop-color="#6165d7" /></linearGradient><linearGradient id="i16" gradientUnits="userSpaceOnUse" spreadMethod="pad" x2="907.012" y2="1855.857" x1="-250.638" y1="-511.278"><stop offset="0%" stop-color="#65b838" /><stop offset="49.8%" stop-color="#7be441" /><stop offset="99.6%" stop-color="#65b439" /></linearGradient><linearGradient id="i17" gradientUnits="userSpaceOnUse" spreadMethod="pad" x2="750.166" y2="1580.206" x1="-407.484" y1="-786.93"><stop offset="0%" stop-color="#5ead32" /><stop offset="49.8%" stop-color="#6fce3b" /><stop offset="99.6%" stop-color="#6165d7" /></linearGradient><linearGradient id="i18" gradientUnits="userSpaceOnUse" spreadMethod="pad" x2="-60.232" y2="-32.269" x1="-134.751" y1="69.713"><stop offset="0%" stop-color="#60b432" /><stop offset="49.8%" stop-color="#6fce3b" /><stop offset="99.6%" stop-color="#509728" /></linearGradient><linearGradient id="i19" gradientUnits="userSpaceOnUse" spreadMethod="pad" x2="2574.221" y2="1701.728" x1="2694.864" y1="1656.711"><stop offset="0%" stop-color="#444b8c" /><stop offset="49.8%" stop-color="#35396d" /><stop offset="99.6%" stop-color="#26264f" /></linearGradient><linearGradient id="i20" gradientUnits="userSpaceOnUse" spreadMethod="pad" x2="1678.567" y2="2125.308" x1="1665.706" y1="2001.152"><stop offset="0%" stop-color="#ffc444" /><stop offset="49.8%" stop-color="#f99a4d" /><stop offset="99.6%" stop-color="#f36f56" /></linearGradient><linearGradient id="i21" gradientUnits="userSpaceOnUse" spreadMethod="pad" x2="2165.913" y2="1548.063" x1="2285.583" y1="1500.503"><stop offset="0%" stop-color="#444b8c" /><stop offset="49.8%" stop-color="#35396d" /><stop offset="99.6%" stop-color="#26264f" /></linearGradient><linearGradient id="i22" gradientUnits="userSpaceOnUse" spreadMethod="pad" x2="1418.24" y2="1841.268" x1="1405.379" y1="1717.113"><stop offset="0%" stop-color="#ffc444" /><stop offset="49.8%" stop-color="#f99a4d" /><stop offset="99.6%" stop-color="#f36f56" /></linearGradient><linearGradient id="i23" gradientUnits="userSpaceOnUse" spreadMethod="pad" x2="-72.257" y2="-154.101" x1="-372.835" y1="257.253"><stop offset="0%" stop-color="#5caa31" /><stop offset="49.8%" stop-color="#6fce3b" /><stop offset="99.6%" stop-color="#539e2a" /></linearGradient><linearGradient id="i24" gradientUnits="userSpaceOnUse" spreadMethod="pad" x2="157.339" y2="-303.17" x1="-153.443" y1="90.352"><stop offset="0%" stop-color="#51992a" /><stop offset="49.8%" stop-color="#6fce3b" /><stop offset="99.6%" stop-color="#57a32e" /></linearGradient><linearGradient id="i25" gradientUnits="userSpaceOnUse" spreadMethod="pad" x2="-469.218" y2="476.02" x1="-685.128" y1="1139.811"><stop offset="0%" stop-color="#444b8c" /><stop offset="49.8%" stop-color="#35396d" /><stop offset="99.6%" stop-color="#26264f" /></linearGradient><linearGradient id="i26" gradientUnits="userSpaceOnUse" spreadMethod="pad" x2="-791.036" y2="1100.697" x1="-519.391" y1="421.306"><stop offset="0%" stop-color="#444b8c" /><stop offset="49.8%" stop-color="#35396d" /><stop offset="99.6%" stop-color="#26264f" /></linearGradient><linearGradient id="i27" gradientUnits="userSpaceOnUse" spreadMethod="pad" x2="-328.785" y2="320.729" x1="-221.305" y1="503.134"><stop offset="0%" stop-color="#311944" /><stop offset="50%" stop-color="#5d295d" /><stop offset="100%" stop-color="#893976" /></linearGradient><linearGradient id="i28" gradientUnits="userSpaceOnUse" spreadMethod="pad" x2="-336.818" y2="344.194" x1="-396.446" y1="173.96"><stop offset="0%" stop-color="#311944" /><stop offset="50%" stop-color="#5d295d" /><stop offset="100%" stop-color="#893976" /></linearGradient><linearGradient id="i29" gradientUnits="userSpaceOnUse" spreadMethod="pad" x2="213.019" y2="-257.184" x1="-33.663" y1="186.365"><stop offset="0%" stop-color="#ffc444" /><stop offset="49.8%" stop-color="#f99a4d" /><stop offset="99.6%" stop-color="#f36f56" /></linearGradient><linearGradient id="i30" gradientUnits="userSpaceOnUse" spreadMethod="pad" x2="533.972" y2="-484.82" x1="-123.805" y1="75.18"><stop offset="0%" stop-color="#5ca832" /><stop offset="49.8%" stop-color="#6fce3b" /><stop offset="99.6%" stop-color="#559e2c" /></linearGradient><linearGradient id="i31" gradientUnits="userSpaceOnUse" spreadMethod="pad" x2="179.861" y2="15.938" x1="-103.461" y1="-26.027"><stop offset="0%" stop-color="#6fce3b" /><stop offset="49.8%" stop-color="#6fce3b" /><stop offset="99.6%" stop-color="#65bd35" /></linearGradient><linearGradient id="i32" gradientUnits="userSpaceOnUse" spreadMethod="pad" x2="187.286" y2="-203.144" x1="-93.014" y1="151.781"><stop offset="0%" stop-color="#5ead32" /><stop offset="49.8%" stop-color="#6fce3b" /><stop offset="99.6%" stop-color="#4c9226" /></linearGradient><linearGradient id="i33" gradientUnits="userSpaceOnUse" spreadMethod="pad" x2="-221.057" y2="23.506" x1="-69.208" y1="207.59"><stop offset="0%" stop-color="#444b8c" /><stop offset="49.8%" stop-color="#35396d" /><stop offset="99.6%" stop-color="#26264f" /></linearGradient><linearGradient id="i34" gradientUnits="userSpaceOnUse" spreadMethod="pad" x2="-61.935" y2="-87.733" x1="-315.26" y1="544.127"><stop offset="0%" stop-color="#311944" /><stop offset="50%" stop-color="#5d295d" /><stop offset="100%" stop-color="#893976" /></linearGradient><linearGradient id="i35" gradientUnits="userSpaceOnUse" spreadMethod="pad" x2="179.68" y2="82.625" x1="-478.972" y1="132.896"><stop offset="0%" stop-color="#311944" /><stop offset="50%" stop-color="#5d295d" /><stop offset="100%" stop-color="#893976" /></linearGradient><linearGradient id="i36" gradientUnits="userSpaceOnUse" spreadMethod="pad" x2="-27.851" y2="207.792" x1="31.541" y1="-208.965"><stop offset="0%" stop-color="#444b8c" /><stop offset="49.8%" stop-color="#35396d" /><stop offset="99.6%" stop-color="#26264f" /></linearGradient><linearGradient id="i37" gradientUnits="userSpaceOnUse" spreadMethod="pad" x2="-27.886" y2="278.111" x1="38.097" y1="-85.896"><stop offset="0%" stop-color="#ffc444" /><stop offset="49.8%" stop-color="#f99a4d" /><stop offset="99.6%" stop-color="#f36f56" /></linearGradient><linearGradient id="i38" gradientUnits="userSpaceOnUse" spreadMethod="pad" x2="27.266" y2="46.606" x1="-98.094" y1="-248.355"><stop offset="0%" stop-color="#444b8c" /><stop offset="49.8%" stop-color="#35396d" /><stop offset="99.6%" stop-color="#26264f" /></linearGradient><linearGradient id="i39" gradientUnits="userSpaceOnUse" spreadMethod="pad" x2="2424.262" y2="-1024.516" x1="2419.583" y1="-978.696"><stop offset="0%" stop-color="#ffc444" /><stop offset="50%" stop-color="#f99a4d" /><stop offset="100%" stop-color="#f36f56" /></linearGradient><linearGradient id="i40" gradientUnits="userSpaceOnUse" spreadMethod="pad" x2="460.945" y2="-23.181" x1="379.194" y1="-32.024"><stop offset="0%" stop-color="#aa80f9" /><stop offset="49.8%" stop-color="#8672e8" /><stop offset="99.6%" stop-color="#6165d7" /></linearGradient><linearGradient id="i41" gradientUnits="userSpaceOnUse" spreadMethod="pad" x2="466.177" y2="-39.325" x1="384.426" y1="-48.168"><stop offset="0%" stop-color="#aa80f9" /><stop offset="49.8%" stop-color="#8672e8" /><stop offset="99.6%" stop-color="#6165d7" /></linearGradient><linearGradient id="i42" gradientUnits="userSpaceOnUse" spreadMethod="pad" x2="390.091" y2="-35.31" x1="-109.718" y1="-25.312"><stop offset="0%" stop-color="#444b8c" /><stop offset="49.8%" stop-color="#35396d" /><stop offset="99.6%" stop-color="#26264f" /></linearGradient><linearGradient id="i43" gradientUnits="userSpaceOnUse" spreadMethod="pad" x2="397.144" y2="-7.144" x1="-83.132" y1="-56.789"><stop offset="0%" stop-color="#444b8c" /><stop offset="49.8%" stop-color="#35396d" /><stop offset="99.6%" stop-color="#26264f" /></linearGradient><linearGradient id="i44" gradientUnits="userSpaceOnUse" spreadMethod="pad" x2="-37.112" y2="-126.514" x1="845.631" y1="461.982"><stop offset="0%" stop-color="#311944" /><stop offset="50%" stop-color="#4e295d" /><stop offset="100%" stop-color="#6b3976" /></linearGradient><linearGradient id="i45" gradientUnits="userSpaceOnUse" spreadMethod="pad" x2="-307.229" y2="-286.734" x1="575.507" y1="301.757"><stop offset="0%" stop-color="#311944" /><stop offset="50%" stop-color="#4e295d" /><stop offset="100%" stop-color="#6b3976" /></linearGradient><linearGradient id="i46" gradientUnits="userSpaceOnUse" spreadMethod="pad" x2="-27.326" y2="254.121" x1="-26.761" y1="-178.305"><stop offset="0%" stop-color="#63b636" /><stop offset="49.8%" stop-color="#6fce3b" /><stop offset="99.6%" stop-color="#569633" /></linearGradient><linearGradient id="i47" gradientUnits="userSpaceOnUse" spreadMethod="pad" x2="816.362" y2="563.909" x1="152.92" y1="-139.246"><stop offset="0%" stop-color="#509b28" /><stop offset="49.8%" stop-color="#6fce3b" /><stop offset="99.6%" stop-color="#56a12d" /></linearGradient><linearGradient id="i48" gradientUnits="userSpaceOnUse" spreadMethod="pad" x2="712.437" y2="348.691" x1="-7.035" y1="-218.749"><stop offset="0%" stop-color="#aa80f9" /><stop offset="49.8%" stop-color="#6fce3b" /><stop offset="99.6%" stop-color="#52972b" /></linearGradient><linearGradient id="i49" gradientUnits="userSpaceOnUse" spreadMethod="pad" x2="-1227.614" y2="465.997" x1="-1207.005" y1="67.48"><stop offset="0%" stop-color="#ffc444" /><stop offset="49.8%" stop-color="#f99a4d" /><stop offset="99.6%" stop-color="#f36f56" /></linearGradient><linearGradient id="i50" gradientUnits="userSpaceOnUse" spreadMethod="pad" x2="87.477" y2="-210.115" x1="41.702" y1="113.474"><stop offset="0%" stop-color="#ffc444" /><stop offset="49.8%" stop-color="#f99a4d" /><stop offset="99.6%" stop-color="#f36f56" /></linearGradient><linearGradient id="i51" gradientUnits="userSpaceOnUse" spreadMethod="pad" x2="-1272.524" y2="-512.105" x1="-1224.43" y1="-190.371"><stop offset="0%" stop-color="#ffc444" /><stop offset="49.8%" stop-color="#f99a4d" /><stop offset="99.6%" stop-color="#f36f56" /></linearGradient><linearGradient id="i52" gradientUnits="userSpaceOnUse" spreadMethod="pad" x2="-39.109" y2="-113.843" x1="843.631" y1="474.651"><stop offset="0%" stop-color="#311944" /><stop offset="50%" stop-color="#4e295d" /><stop offset="100%" stop-color="#6b3976" /></linearGradient><linearGradient id="i53" gradientUnits="userSpaceOnUse" spreadMethod="pad" x2="95.847" y2="82.448" x1="-19.147" y1="-54.276"><stop offset="0%" stop-color="#ffc444" /><stop offset="49.8%" stop-color="#f99a4d" /><stop offset="99.6%" stop-color="#f36f56" /></linearGradient><linearGradient id="i54" gradientUnits="userSpaceOnUse" spreadMethod="pad" x2="408.872" y2="-43.799" x1="524.061" y1="-116.087"><stop offset="0%" stop-color="#ffc444" /><stop offset="49.8%" stop-color="#f99a4d" /><stop offset="99.6%" stop-color="#f36f56" /></linearGradient><linearGradient id="i55" gradientUnits="userSpaceOnUse" spreadMethod="pad" x2="659.804" y2="102.387" x1="199.647" y1="-43.735"><stop offset="0%" stop-color="#ff9085" /><stop offset="50%" stop-color="#fd80a0" /><stop offset="100%" stop-color="#fb6fbb" /></linearGradient><linearGradient id="i56" gradientUnits="userSpaceOnUse" spreadMethod="pad" x2="393.95" y2="126.848" x1="-277.161" y1="-132.707"><stop offset="0%" stop-color="#5ead32" /><stop offset="49.8%" stop-color="#6fce3b" /><stop offset="99.6%" stop-color="#63b835" /></linearGradient><linearGradient id="i57" gradientUnits="userSpaceOnUse" spreadMethod="pad" x2="-128.386" y2="106.027" x1="42.206" y1="-16.881"><stop offset="0%" stop-color="#ffc444" /><stop offset="49.8%" stop-color="#f99a4d" /><stop offset="99.6%" stop-color="#f36f56" /></linearGradient><linearGradient id="i58" gradientUnits="userSpaceOnUse" spreadMethod="pad" x2="-58.593" y2="83.364" x1="72.568" y1="-41.385"><stop offset="0%" stop-color="#62b634" /><stop offset="49.8%" stop-color="#6fce3b" /><stop offset="99.6%" stop-color="#5bac2f" /></linearGradient><linearGradient id="i59" gradientUnits="userSpaceOnUse" spreadMethod="pad" x2="252.099" y2="299.643" x1="-85.897" y1="-102.887"><stop offset="0%" stop-color="#5eb42f" /><stop offset="49.8%" stop-color="#6fce3b" /><stop offset="99.6%" stop-color="#6bc23b" /></linearGradient><linearGradient id="i60" gradientUnits="userSpaceOnUse" spreadMethod="pad" x2="-275.127" y2="-258.052" x1="607.61" y1="330.44"><stop offset="0%" stop-color="#311944" /><stop offset="50%" stop-color="#4e295d" /><stop offset="100%" stop-color="#6b3976" /></linearGradient></defs><g transform="matrix(1,0,0,1,1598.59,1567.757)" id="i61"><g id="i61"><path fill="#f4f7fa" d="M1381.339,-32.166C1428.505,208.504,1524.101,696.279,1295.335,1022.588C886.544,1605.682,-514.416,1580.651,-1128.279,826.411C-1171.151,773.735,-1530.702,317.372,-1421.185,-263.013C-1280.06,-1010.905,-437.918,-1552.005,230.446,-1405.372C653.265,-1312.609,923.931,-962.795,1033.764,-820.667C1080.501,-760.188,1294.54,-475.062,1381.339,-32.166Z" /></g></g><g id="i62"><g transform="translate(883.7,1677.043)"><g transform="rotate(-2)"><animateTransform repeatCount="indefinite" type="rotate" attributeName="transform" dur="5s" begin="0s" calcMode="spline" values="-2; 0; 0" keyTimes="0; 0.25; 1" keySplines="0.333 0 0.667 1; 0 0 1 1" fill="freeze" /><g transform="scale(1,1) translate(-883.7,-1664.678)"><g clip-path="url(#i1)" id="i63"><g id="i64" transform="matrix(1,0,0,1,741.744,1120.678)"><path fill="url(#i0)" d="M41.697,426.194C42.499,426.81,43.304,427.422,44.112,428.034C91.905,464.215,150.527,495.316,222.908,516.143C237.303,519.207,251.699,522.271,266.094,525.336C286.471,494.412,300.315,461.353,260.129,437.39C197.72,400.176,226.024,281.045,255.12,243.713C291.132,197.506,372.776,88.195,277.2,29.147C197.634,-20.011,136.243,-35.47,158.264,-148.323C180.285,-261.176,137.036,-345.956,34.405,-364.797C-73.599,-384.624,-125.055,-548.024,-224.029,-522.671C-396.486,-478.494,-320.95,-198.509,-154.419,-80.917C12.112,36.675,-110.459,76.457,-138.411,166.307C-176.571,288.971,-1.722,304.803,30.37,364.867C41.241,385.211,43.697,406.323,41.697,426.194Z" /></g><g id="i65" transform="matrix(1,0,0,1,0,0)"><g id="i65" transform="matrix(1,0,0,1,0,0)"><g id="i66" transform="matrix(1,0,0,1,666.159,1103.168)"><path fill="#fcfdfe" d="M213.214,501.158C213.214,501.158,218.383,501.391,218.383,501.391C235.326,123.519,68.794,-260.725,-216.225,-501.391C-216.225,-501.391,-219.562,-497.437,-219.562,-497.437C64.256,-257.785,230.086,124.856,213.214,501.158Z" /></g><g id="i67" transform="matrix(1,0,0,1,967.886,1283.066)"><path fill="#fcfdfe" d="M-96.924,114.452C-96.924,114.452,-91.903,115.701,-91.903,115.701C-56.051,-28.562,95.398,-110.321,96.924,-111.13C96.924,-111.13,94.5,-115.701,94.5,-115.701C92.954,-114.883,-60.505,-32.085,-96.924,114.452Z" /></g><g id="i68" transform="matrix(1,0,0,1,734.17,1418.549)"><path fill="#fcfdfe" d="M146.424,116.18C146.424,116.18,151.436,114.894,151.436,114.894C113.979,-31.084,-147.239,-115.347,-149.874,-116.18C-149.874,-116.18,-151.436,-111.247,-151.436,-111.247C-148.83,-110.422,109.68,-27.022,146.424,116.18Z" /></g><g id="i64" transform="matrix(1,0,0,1,817.428,905.754)"><path fill="#fcfdfe" d="M-47.129,134.947C-47.129,134.947,-42.025,134.096,-42.025,134.096C-61.745,16.178,48.434,-130.347,49.549,-131.813C49.549,-131.813,45.433,-134.947,45.433,-134.947C44.303,-133.463,-67.215,14.851,-47.129,134.947Z" /></g><g id="i65" transform="matrix(1,0,0,1,515.261,778.492)"><path fill="#fcfdfe" d="M136.979,52.996C136.979,52.996,140.673,49.372,140.673,49.372C45.245,-47.846,-138.71,-52.958,-140.56,-52.996C-140.56,-52.996,-140.673,-47.823,-140.673,-47.823C-138.846,-47.787,43.039,-42.709,136.979,52.996Z" /></g></g></g></g></g></g></g></g><g id="i69"><g transform="translate(928,1768)"><g transform="rotate(-5)"><animateTransform repeatCount="indefinite" type="rotate" attributeName="transform" dur="5s" begin="0s" calcMode="spline" values="-5; 0; 0" keyTimes="0; 0.25; 1" keySplines="0.333 0 0.667 1; 0 0 1 1" fill="freeze" /><g transform="scale(1,1) translate(672,-168)"><g clip-path="url(#i3)" id="i70"><g id="i69"><g id="i64"><path fill="url(#i2)" d="M-539.245,159.37C-539.245,159.37,-795.803,158.499,-795.803,158.499C-795.803,158.499,-843.651,26.727,-780.463,-65.939C-651.541,-255.006,-826.129,-354.725,-893.006,-407.43C-993.862,-486.914,-1038.076,-589.32,-916.243,-655.238C-778.396,-729.821,-898.998,-929.998,-1080.379,-1034.89C-1257.873,-1137.534,-1177.833,-1512.279,-773.27,-1325.393C-531.666,-1213.785,-570.437,-957.356,-559.231,-823.207C-548.025,-689.058,-348.606,-677.285,-417.425,-513.687C-476.209,-373.945,-587.341,-272.281,-503.121,-175.785C-418.9,-79.289,-410.521,28.612,-539.245,159.37Z" /></g><g id="i65"><g id="i71"><path fill="#beb8f2" d="M-650.365,182.805C-650.365,182.805,-655.689,181.81,-655.689,181.81C-655.073,178.512,-594.586,-151.861,-633.377,-497.453C-669.111,-815.836,-798.875,-1212.66,-1214.124,-1295.078C-1214.124,-1295.078,-1213.071,-1300.391,-1213.071,-1300.391C-1028.221,-1263.704,-883.605,-1162.746,-783.236,-1000.326C-703.059,-870.58,-650.824,-701.556,-627.981,-497.948C-589.124,-151.566,-649.749,179.5,-650.365,182.805Z" /></g><g id="i72"><path fill="#beb8f2" d="M-744.226,-930.643C-744.226,-930.643,-749.6,-931.333,-749.6,-931.333C-726.721,-1110.144,-794.01,-1364.482,-794.691,-1367.03C-794.691,-1367.03,-789.46,-1368.433,-789.46,-1368.433C-788.776,-1365.873,-721.213,-1110.502,-744.226,-930.643Z" /></g><g id="i66"><path fill="#beb8f2" d="M-814.068,-1037.031C-996.007,-1151.246,-1166.538,-1097.318,-1168.238,-1096.76C-1168.238,-1096.76,-1169.927,-1101.904,-1169.927,-1101.904C-1168.201,-1102.473,-995.358,-1157.232,-811.188,-1041.619C-811.188,-1041.619,-814.068,-1037.031,-814.068,-1037.031Z" /></g><g id="i67"><path fill="#beb8f2" d="M-620.326,-270.135C-680.017,-525.697,-1027.11,-589.504,-1030.543,-589.843C-1030.543,-589.843,-1030.365,-595.251,-1030.365,-595.251C-1026.964,-595.238,-675.273,-529.199,-615.053,-271.367C-615.053,-271.367,-620.326,-270.135,-620.326,-270.135Z" /></g><g id="i68"><path fill="#beb8f2" d="M-618.287,-378.333C-618.287,-378.333,-623.588,-379.456,-623.588,-379.456C-588.93,-543.298,-410.696,-655.509,-408.898,-656.624C-408.898,-656.624,-406.043,-652.023,-406.043,-652.023C-407.822,-650.919,-584.117,-539.889,-618.287,-378.333Z" /></g><g id="i64"><path fill="#beb8f2" d="M-647.315,129.613C-654.788,30.196,-796.423,-48.984,-797.851,-49.774C-797.851,-49.774,-795.237,-54.515,-795.237,-54.515C-789.295,-51.243,-649.606,26.858,-641.915,129.208C-641.915,129.208,-647.315,129.613,-647.315,129.613Z" /></g><g id="i65"><path fill="#beb8f2" d="M-631.94,51.571C-631.94,51.571,-637.276,50.64,-637.276,50.64C-623.745,-27.018,-505.998,-113.18,-467.305,-141.493C-461.837,-145.495,-457.117,-148.949,-456.397,-149.73C-456.397,-149.73,-452.363,-146.116,-452.363,-146.116C-453.363,-145,-456.493,-142.695,-464.106,-137.123C-502.362,-109.128,-618.784,-23.936,-631.94,51.571Z" /></g></g></g></g></g></g></g></g><g id="i73"><g transform="translate(2051.347,1801.874)"><g transform="rotate(0)"><animateTransform repeatCount="indefinite" type="rotate" attributeName="transform" dur="5s" begin="0s" calcMode="spline" values="0; -2; -2" keyTimes="0; 0.25; 1" keySplines="0.333 0 0.667 1; 0 0 1 1" fill="freeze" /><g transform="scale(1,1) translate(-2049.007,-1785.277)"><g clip-path="url(#i5)" id="i74"><g id="i64" transform="matrix(1,0,0,1,2338.278,1099.039)"><path fill="url(#i4)" d="M-112.152,514.285C-83.914,575.268,-110.826,636.268,-136.653,677.322C-142.812,677.359,-146.39,679.069,-152.613,680.583C-208.782,694.247,-235.126,687.294,-292.228,691.427C-304.518,692.317,-341.03,683.158,-355.699,678.38C-355.699,678.38,-382.9,668.999,-382.9,668.999C-382.9,668.999,-431.173,520.665,-355.318,479.693C-279.462,438.72,-308.508,291.096,-314.867,210.585C-332.121,-7.864,-96.055,11.992,-95.79,-270.495C-95.72,-345.628,-120.709,-488.934,-57.364,-548.776C14.803,-616.954,67.488,-550.075,113.89,-607.087C186.415,-696.195,304.106,-728.161,374.259,-636.456C443.497,-545.948,359.367,-365.779,150.224,-220.972C11.951,-100.091,9.791,-63.902,20.674,24.226C28.297,85.955,87.179,246.76,3.392,310.972C-80.395,375.184,-144.433,444.57,-112.152,514.285Z" /></g><g id="i65" transform="matrix(1,0,0,1,0,0)"><g id="i65" transform="matrix(1,0,0,1,0,0)"><g id="i75" transform="matrix(1,0,0,1,2429.035,1089.114)"><path fill="#fcfdfe" d="M-353.253,703.651C-353.253,703.651,-357.42,703.13,-357.42,703.13C-354.324,678.291,-350.894,653.279,-347.227,628.789C-320.062,447.461,-276.955,275.231,-219.097,116.88C-170.072,-17.295,-109.797,-143.404,-39.947,-257.946C16.226,-350.06,78.87,-435.227,146.244,-511.081C193.608,-564.404,242.801,-612.61,292.461,-654.356C301.114,-661.633,310.37,-668.59,319.322,-675.319C331.249,-684.283,343.582,-693.553,354.581,-703.651C354.581,-703.651,357.42,-700.555,357.42,-700.555C346.27,-690.318,333.854,-680.986,321.847,-671.96C312.939,-665.265,303.729,-658.342,295.164,-651.139C245.66,-609.524,196.613,-561.463,149.384,-508.29C82.176,-432.625,19.683,-347.659,-36.361,-255.758C-106.067,-141.452,-166.221,-15.593,-215.152,118.323C-272.912,276.406,-315.95,448.362,-343.072,629.41C-346.736,653.867,-350.161,678.844,-353.253,703.651Z" /></g><g id="i71" transform="matrix(1,0,0,1,2330.045,740.915)"><path fill="#fcfdfe" d="M-16.582,235.29C-16.582,235.29,-20.387,233.506,-20.387,233.506C56.206,70.263,-11.05,-231.33,-11.739,-234.357C-11.739,-234.357,-7.642,-235.29,-7.642,-235.29C-6.95,-232.248,60.623,70.74,-16.582,235.29Z" /></g><g id="i72" transform="matrix(1,0,0,1,2266.23,1346.846)"><path fill="#fcfdfe" d="M-126.994,104.798C-126.994,104.798,-130.979,103.468,-130.979,103.468C-91.907,-13.562,127.186,-103.898,129.394,-104.798C129.394,-104.798,130.979,-100.905,130.979,-100.905C128.788,-100.014,-88.534,-10.404,-126.994,104.798Z" /></g><g id="i66" transform="matrix(1,0,0,1,2082.898,1354.158)"><path fill="#fcfdfe" d="M39.91,165.805C39.91,165.805,35.753,165.199,35.753,165.199C47.345,85.498,20.572,-29.387,-39.638,-158.288C-42.665,-164.77,-42.666,-164.77,-42.562,-165.561C-42.562,-165.561,-38.396,-165.007,-38.396,-165.007C-38.396,-165.007,-40.479,-165.284,-40.479,-165.284C-40.479,-165.284,-38.452,-165.805,-38.452,-165.805C-38.3,-165.35,-37.158,-162.903,-35.831,-160.067C24.721,-30.429,51.621,85.3,39.91,165.805Z" /></g><g id="i67" transform="matrix(1,0,0,1,2161.922,1690.367)"><path fill="#fcfdfe" d="M-79.848,57.147C-79.848,57.147,-83.657,55.378,-83.657,55.378C-46.302,-25.082,81.382,-56.836,82.666,-57.147C82.666,-57.147,83.657,-53.064,83.657,-53.064C82.391,-52.757,-43.347,-21.47,-79.848,57.147Z" /></g><g id="i68" transform="matrix(1,0,0,1,2015.872,1688.556)"><path fill="#fcfdfe" d="M53.559,104.535C37.728,34.777,1.348,-32.719,-57.656,-101.805C-57.656,-101.805,-54.459,-104.535,-54.459,-104.535C4.997,-34.917,41.67,33.167,57.656,103.605C57.656,103.605,53.559,104.535,53.559,104.535Z" /></g><g id="i64" transform="matrix(1,0,0,1,2582.952,505.869)"><path fill="#fcfdfe" d="M-43.48,120.279C-43.48,120.279,-47.177,118.285,-47.177,118.285C0.466,29.898,30.029,-74.003,39.743,-108.146C42.095,-116.411,42.933,-119.317,43.4,-120.279C43.4,-120.279,47.177,-118.441,47.177,-118.441C46.83,-117.702,45.485,-112.977,43.784,-106.995C34.038,-72.744,4.381,31.488,-43.48,120.279Z" /></g><g id="i65" transform="matrix(1,0,0,1,2569.499,724.979)"><path fill="#fcfdfe" d="M-128.747,33.422C-128.747,33.422,-131.693,30.427,-131.693,30.427C-64.588,-35.626,123.71,-33.512,131.693,-33.39C131.693,-33.39,131.628,-29.189,131.628,-29.189C129.692,-29.218,-62.895,-31.397,-128.747,33.422Z" /></g></g></g></g></g></g></g></g><g id="i76"><g transform="translate(1991.359,2210.365)"><g transform="rotate(0)"><animateTransform repeatCount="indefinite" type="rotate" attributeName="transform" dur="5s" begin="0s" calcMode="spline" values="0; -3; -3" keyTimes="0; 0.25; 1" keySplines="0.333 0 0.667 1; 0 0 1 1" fill="freeze" /><g transform="scale(1,1) translate(-391.359,-610.365)"><g clip-path="url(#i7)" id="i77"><g id="i76"><g id="i64"><path fill="url(#i6)" d="M292.922,541.63C292.922,541.63,537.737,618.365,537.737,618.365C537.737,618.365,623.185,507.225,590.97,399.792C525.242,180.596,721.809,138.327,801.49,108.307C921.657,63.034,994.762,-21.211,898.56,-120.878C789.712,-233.646,965.19,-387.994,1169.795,-433.14C1370.016,-477.318,1407.017,-858.726,964.885,-802.897C700.845,-769.556,660.276,-513.406,609.037,-388.923C557.798,-264.44,364.151,-313.507,380.289,-136.759C394.073,14.216,469.27,144.72,359.817,211.238C250.364,277.756,209.754,378.073,292.922,541.63Z" /></g><g id="i65"><g id="i71"><path fill="#beb8f2" d="M391.757,597.563C391.757,597.563,397.133,598.225,397.133,598.225C397.543,594.895,439.768,261.695,581.227,-55.996C711.546,-348.676,955.21,-687.699,1375.944,-640.717C1375.944,-640.717,1376.546,-646.099,1376.546,-646.099C1189.255,-667.015,1020.883,-614.504,876.107,-490.029C760.456,-390.595,659.564,-245.274,576.233,-58.1C434.472,260.325,392.169,594.227,391.757,597.563Z" /></g><g id="i72"><path fill="#beb8f2" d="M817.856,-435.401C817.856,-435.401,823.187,-434.434,823.187,-434.434C855.439,-611.794,996.473,-833.887,997.893,-836.11C997.893,-836.11,993.33,-839.029,993.33,-839.029C991.904,-836.795,850.297,-613.801,817.856,-435.401Z" /></g><g id="i66"><path fill="#beb8f2" d="M916.593,-515.695C1124.549,-569.559,1270.796,-466.598,1272.247,-465.552C1272.247,-465.552,1275.413,-469.945,1275.413,-469.945C1273.94,-471.01,1125.74,-575.462,915.235,-520.939C915.235,-520.939,916.593,-515.695,916.593,-515.695Z" /></g><g id="i67"><path fill="#beb8f2" d="M500.062,156.738C634.224,-68.818,984.364,-24.702,987.739,-23.987C987.739,-23.987,989.205,-29.196,989.205,-29.196C985.959,-30.212,630.76,-73.59,495.408,153.97C495.408,153.97,500.062,156.738,500.062,156.738Z" /></g><g id="i68"><path fill="#beb8f2" d="M530.829,52.987C530.829,52.987,536.222,53.52,536.222,53.52C552.72,-113.132,416.753,-273.98,415.376,-275.586C415.376,-275.586,411.263,-272.063,411.263,-272.063C412.625,-270.473,547.102,-111.339,530.829,52.987Z" /></g><g id="i64"><path fill="#beb8f2" d="M404.931,545.939C442.111,453.434,601.056,420.779,602.656,420.458C602.656,420.458,601.599,415.149,601.599,415.149C594.946,416.472,438.181,448.685,399.906,543.92C399.906,543.92,404.931,545.939,404.931,545.939Z" /></g><g id="i65"><path fill="#beb8f2" d="M413.87,466.9C413.87,466.9,419.238,467.626,419.238,467.626C429.819,389.511,343.631,271.783,315.309,233.097C311.307,227.629,307.852,222.91,307.402,221.948C307.402,221.948,302.464,224.173,302.464,224.173C303.079,225.539,305.367,228.683,310.939,236.296C338.941,274.547,424.158,390.949,413.87,466.9Z" /></g></g></g></g></g></g></g></g><g id="i78"><g transform="translate(1991.324,2270.354)"><g transform="rotate(0)"><animateTransform repeatCount="indefinite" type="rotate" attributeName="transform" dur="5s" begin="0s" calcMode="spline" values="0; -5; -5" keyTimes="0; 0.25; 1" keySplines="0.333 0 0.667 1; 0 0 1 1" fill="freeze" /><g transform="scale(1,1) translate(-1991.324,-2256.856)"><g clip-path="url(#i9)" id="i79"><g id="i64" transform="matrix(1,0,0,1,2266.43,1788.856)"><path fill="url(#i8)" d="M-141.783,414.783C-142.699,415.212,-143.617,415.638,-144.537,416.062C-198.986,441.132,-262.92,458.914,-338.085,463.706C-352.803,463.607,-367.521,463.507,-382.238,463.408C-395.497,428.829,-401.916,393.567,-357.52,378.796C-288.574,355.857,-290.627,233.426,-311.024,190.716C-336.27,137.852,-392.526,13.555,-286.497,-23.584C-198.229,-54.503,-134.951,-56.413,-132.216,-171.362C-129.481,-286.311,-69.03,-359.821,35.253,-356.176C144.994,-352.34,230.35,-500.872,321.567,-454.85C480.508,-374.658,346.591,-117.436,158.688,-38.362C-29.215,40.712,81.948,105.895,89.947,199.652C100.867,327.649,-73.301,305.552,-117.546,357.32C-132.533,374.854,-139.468,394.946,-141.783,414.783Z" /></g><g id="i65" transform="matrix(1,0,0,1,0,0)"><g id="i65" transform="matrix(1,0,0,1,0,0)"><g id="i66" transform="matrix(1,0,0,1,2334.656,1795.696)"><path fill="#fcfdfe" d="M-316.042,443.448C-316.042,443.448,-321.14,442.566,-321.14,442.566C-256.516,69.876,-11.333,-269.625,318.73,-443.448C318.73,-443.448,321.14,-438.87,321.14,-438.87C-7.532,-265.779,-251.687,72.306,-316.042,443.448Z" /></g><g id="i67" transform="matrix(1,0,0,1,2000.82,1906.091)"><path fill="#fcfdfe" d="M70.433,132.879C70.433,132.879,65.261,133.021,65.261,133.021C61.235,-15.576,-69.116,-127.959,-70.433,-129.077C-70.433,-129.077,-67.084,-133.021,-67.084,-133.021C-65.75,-131.891,66.343,-18.06,70.433,132.879Z" /></g><g id="i68" transform="matrix(1,0,0,1,2199.942,2089.265)"><path fill="#fcfdfe" d="M-167.571,81.643C-167.571,81.643,-172.189,79.311,-172.189,79.311C-104.249,-55.213,168.972,-81.395,171.724,-81.643C171.724,-81.643,172.189,-76.49,172.189,-76.49C169.467,-76.244,-100.923,-50.323,-167.571,81.643Z" /></g><g id="i64" transform="matrix(1,0,0,1,2234.815,1570.368)"><path fill="#fcfdfe" d="M11.399,141.739C11.399,141.739,6.596,139.811,6.596,139.811C51.186,28.882,-24.945,-137.89,-25.719,-139.562C-25.719,-139.562,-21.026,-141.739,-21.026,-141.739C-20.241,-140.047,56.814,28.761,11.399,141.739Z" /></g><g id="i65" transform="matrix(1,0,0,1,2551.958,1507.037)"><path fill="#fcfdfe" d="M-145.499,26.101C-145.499,26.101,-148.329,21.768,-148.329,21.768C-34.245,-52.682,146.514,-18.158,148.329,-17.798C148.329,-17.798,147.328,-12.721,147.328,-12.721C145.536,-13.078,-33.193,-47.19,-145.499,26.101Z" /></g></g></g></g></g></g></g></g><g transform="matrix(1,0,0,1,0,0)" id="i80"><g id="i67" transform="matrix(1,0,0,1,1529,1482.661)"><path fill="#3b407a" d="M702.955,-1256.587C702.955,-1256.587,702.955,1256.588,702.955,1256.588C702.955,1294.171,670.847,1302.258,634.439,1303.449C634.439,1303.449,-613.464,1367.986,-613.464,1367.986C-613.464,1367.986,-632.369,1368.604,-632.369,1368.604C-671.162,1369.873,-702.955,1339.097,-702.955,1300.209C-702.955,1300.209,-702.955,-1300.209,-702.955,-1300.209C-702.955,-1339.096,-671.162,-1369.873,-632.369,-1368.604C-632.369,-1368.604,-606.713,-1367.765,-606.713,-1367.765C-606.713,-1367.765,645.758,-1270.352,645.758,-1270.352C682.166,-1269.161,702.955,-1294.17,702.955,-1256.587Z" /></g><g id="i68" transform="matrix(1,0,0,1,1567.876,1482.661)"><path fill="#3b407a" d="M702.955,-1256.587C702.955,-1256.587,702.955,1256.588,702.955,1256.588C702.955,1294.171,673.215,1325.893,636.807,1327.084C636.807,1327.084,-632.369,1368.604,-632.369,1368.604C-671.162,1369.873,-702.955,1339.097,-702.955,1300.209C-702.955,1300.209,-702.955,-1300.209,-702.955,-1300.209C-702.955,-1339.096,-671.162,-1369.873,-632.369,-1368.604C-632.369,-1368.604,636.807,-1327.084,636.807,-1327.084C673.215,-1325.893,702.955,-1294.17,702.955,-1256.587Z" /></g></g><g transform="matrix(1,0,0,1,0,0)" id="i66"><g id="i66" transform="matrix(1,0,0,1,0,0)"><g id="i64" transform="matrix(1,0,0,1,1569.282,1529.729)"><path fill="url(#i10)" d="M660.472,-1165.495C660.472,-1165.495,660.472,1162.664,660.472,1162.664C660.472,1197.752,632.679,1227.333,598.658,1228.402C598.658,1228.402,-594.768,1265.892,-594.768,1265.892C-630.879,1267.026,-660.472,1238.312,-660.472,1202.08C-660.472,1202.08,-660.472,-1201.937,-660.472,-1201.937C-660.472,-1238.169,-630.879,-1266.95,-594.768,-1265.897C-594.768,-1265.897,598.658,-1231.094,598.658,-1231.094C632.679,-1230.102,660.472,-1200.583,660.472,-1165.495Z" /></g><g id="i65" transform="matrix(1,0,0,1,1579.856,212.309)"><path fill="#de8bdf" d="M23.582,0.727C23.582,13.97,13.034,24.386,0.014,23.992C-13.014,23.598,-23.582,12.531,-23.582,-0.727C-23.582,-13.985,-13.014,-24.4,0.014,-23.991C13.034,-23.582,23.582,-12.516,23.582,0.727Z" /></g></g></g><g transform="matrix(1,0,0,1,0,0)" id="i81"><g id="i64" transform="matrix(1,0,0,1,1567.432,1661.52)"><path fill="#f4f7fa" d="M477.12,116.563C477.12,116.563,-476.014,129.344,-476.014,129.344C-488.066,129.506,-497.843,119.858,-497.843,107.795C-497.843,107.795,-497.843,-100.911,-497.843,-100.911C-497.843,-112.974,-488.066,-122.818,-476.014,-122.899C-476.014,-122.899,477.12,-129.345,477.12,-129.345C488.568,-129.422,497.843,-119.963,497.843,-108.217C497.843,-108.217,497.843,95.016,497.843,95.016C497.843,106.762,488.568,116.409,477.12,116.563Z" /></g><g id="i65" transform="matrix(1,0,0,1,1444.681,1660.328)"><path d="M-258.438,33.978C-258.438,33.978,-259.631,34.653,-259.631,34.653C-277.328,34.846,-291.819,20.476,-291.819,2.718C-291.819,2.718,-291.819,2.718,-291.819,2.718C-291.819,-15.04,-277.328,-29.702,-259.631,-29.865C-259.631,-29.865,-258.438,-29.654,-258.438,-29.654C-241.24,-29.812,-227.181,-15.636,-227.181,1.848C-227.181,1.848,-227.181,1.848,-227.181,1.848C-227.181,19.332,-241.24,33.79,-258.438,33.978Z" fill="url(#i11)"><animate repeatCount="indefinite" attributeName="d" dur="5s" begin="0s" calcMode="spline" values="M-258.438,33.978C-258.438,33.978,-259.631,34.653,-259.631,34.653C-277.328,34.846,-291.819,20.476,-291.819,2.718C-291.819,2.718,-291.819,2.718,-291.819,2.718C-291.819,-15.04,-277.328,-29.702,-259.631,-29.865C-259.631,-29.865,-258.438,-29.654,-258.438,-29.654C-241.24,-29.812,-227.181,-15.636,-227.181,1.848C-227.181,1.848,-227.181,1.848,-227.181,1.848C-227.181,19.332,-241.24,33.79,-258.438,33.978Z; M-258.438,33.978C-258.438,33.978,-259.631,34.653,-259.631,34.653C-277.328,34.846,-291.819,20.476,-291.819,2.718C-291.819,2.718,-291.819,2.718,-291.819,2.718C-291.819,-15.04,-277.328,-29.702,-259.631,-29.865C-259.631,-29.865,-258.438,-29.654,-258.438,-29.654C-241.24,-29.812,-227.181,-15.636,-227.181,1.848C-227.181,1.848,-227.181,1.848,-227.181,1.848C-227.181,19.332,-241.24,33.79,-258.438,33.978Z; M260.562,28.978C260.562,28.978,-259.631,34.653,-259.631,34.653C-277.328,34.846,-291.819,20.476,-291.819,2.718C-291.819,2.718,-291.819,2.718,-291.819,2.718C-291.819,-15.04,-277.328,-29.702,-259.631,-29.865C-259.631,-29.865,260.562,-34.654,260.562,-34.654C277.76,-34.812,291.819,-20.636,291.819,-3.152C291.819,-3.152,291.819,-3.152,291.819,-3.152C291.819,14.332,277.76,28.79,260.562,28.978Z; M260.562,28.978C260.562,28.978,-259.631,34.653,-259.631,34.653C-277.328,34.846,-291.819,20.476,-291.819,2.718C-291.819,2.718,-291.819,2.718,-291.819,2.718C-291.819,-15.04,-277.328,-29.702,-259.631,-29.865C-259.631,-29.865,260.562,-34.654,260.562,-34.654C277.76,-34.812,291.819,-20.636,291.819,-3.152C291.819,-3.152,291.819,-3.152,291.819,-3.152C291.819,14.332,277.76,28.79,260.562,28.978Z; M-258.438,33.978C-258.438,33.978,-259.631,34.653,-259.631,34.653C-277.328,34.846,-291.819,20.476,-291.819,2.718C-291.819,2.718,-291.819,2.718,-291.819,2.718C-291.819,-15.04,-277.328,-29.702,-259.631,-29.865C-259.631,-29.865,-258.438,-29.654,-258.438,-29.654C-241.24,-29.812,-227.181,-15.636,-227.181,1.848C-227.181,1.848,-227.181,1.848,-227.181,1.848C-227.181,19.332,-241.24,33.79,-258.438,33.978Z; M-258.438,33.978C-258.438,33.978,-259.631,34.653,-259.631,34.653C-277.328,34.846,-291.819,20.476,-291.819,2.718C-291.819,2.718,-291.819,2.718,-291.819,2.718C-291.819,-15.04,-277.328,-29.702,-259.631,-29.865C-259.631,-29.865,-258.438,-29.654,-258.438,-29.654C-241.24,-29.812,-227.181,-15.636,-227.181,1.848C-227.181,1.848,-227.181,1.848,-227.181,1.848C-227.181,19.332,-241.24,33.79,-258.438,33.978Z" keyTimes="0; 0.2; 0.516667; 0.866667; 0.975; 1" keySplines="0 0 1 1; 0.333 0 0.667 1; 0.167 0 0.667 1; 0.167 0 0.667 1; 0 0 1 1" fill="freeze" /></path></g></g><g transform="matrix(1,0,0,1,0,-0.001)" id="i82"><g id="i64" transform="matrix(1,0,0,1,1567.432,2050.848)"><path fill="#f4f7fa" d="M474.955,111.671C474.955,111.671,-473.736,134.248,-473.736,134.248C-487.046,134.565,-497.843,124.022,-497.843,110.7C-497.843,110.7,-497.843,-93.444,-497.843,-93.444C-497.843,-106.766,-487.046,-117.752,-473.736,-117.98C-473.736,-117.98,474.955,-134.252,474.955,-134.252C487.599,-134.469,497.843,-124.128,497.843,-111.155C497.843,-111.155,497.843,87.636,497.843,87.636C497.843,100.609,487.599,111.37,474.955,111.671Z" /></g><g id="i65" transform="matrix(1,0,0,1,0,0)"><g><g transform="translate(1189.696,2056.457)"><g id="i66" transform="scale(0,0)"><animateTransform repeatCount="indefinite" type="scale" attributeName="transform" dur="5s" begin="0s" calcMode="spline" values="0 0; 0 0; 1.101 1.101; 0.9 0.9; 1 1; 1 1; 0.9 0.9; 1.101 1.101; 0 0; 0 0" keyTimes="0; 0.5; 0.566667; 0.6; 0.633333; 0.866667; 0.8875; 0.908333; 0.95; 1" keySplines="0 0 1 1; 0.333 0 0.667 0.731; 0.333 0 0.667 1; 0.333 0 0.667 1; 0.167 0 0.667 1; 0.333 0 0.667 1; 0.333 0 0.667 1; 0.333 0.269 0.667 1; 0 0 1 1" fill="freeze" /><path fill="url(#i12)" d="M40.995,-0.839C40.995,21.849,22.672,40.636,0.044,41.124C-22.61,41.612,-40.995,23.576,-40.995,0.839C-40.995,-21.899,-22.61,-40.687,0.044,-41.126C22.672,-41.564,40.995,-23.527,40.995,-0.839Z" /></g></g></g><g><g transform="translate(1343.404,2053.312)"><g id="i67" transform="scale(0,0)"><animateTransform repeatCount="indefinite" type="scale" attributeName="transform" dur="5s" begin="0s" calcMode="spline" values="0 0; 0 0; 1.091 1.091; 0.9 0.9; 1 1; 1 1; 0.9 0.9; 1.091 1.091; 0 0; 0 0" keyTimes="0; 0.525; 0.591667; 0.625; 0.658333; 0.866667; 0.8875; 0.908333; 0.95; 1" keySplines="0 0 1 1; 0.333 0 0.667 0.728; 0.333 0 0.667 1; 0.333 0 0.667 1; 0.159 0 0.667 1; 0.333 0 0.667 1; 0.333 0 0.667 1; 0.333 0.272 0.667 1; 0 0 1 1" fill="freeze" /><path fill="url(#i13)" d="M40.663,-0.832C40.663,21.764,22.488,40.473,0.044,40.957C-22.427,41.441,-40.663,23.477,-40.663,0.832C-40.663,-21.813,-22.427,-40.524,0.044,-40.959C22.488,-41.394,40.663,-23.428,40.663,-0.832Z" /></g></g></g><g><g transform="translate(1495.869,2050.193)"><g id="i68" transform="scale(0,0)"><animateTransform repeatCount="indefinite" type="scale" attributeName="transform" dur="5s" begin="0s" calcMode="spline" values="0 0; 0 0; 1.121 1.121; 0.9 0.9; 1 1; 1 1; 0.9 0.9; 1.121 1.121; 0 0; 0 0" keyTimes="0; 0.55; 0.616667; 0.65; 0.683333; 0.866667; 0.8875; 0.908333; 0.95; 1" keySplines="0 0 1 1; 0.333 0 0.667 0.736; 0.333 0 0.667 1; 0.333 0 0.667 1; 0.157 0 0.667 1; 0.333 0 0.667 1; 0.333 0 0.667 1; 0.333 0.264 0.667 1; 0 0 1 1" fill="freeze" /><path fill="url(#i14)" d="M40.335,-0.825C40.335,21.68,22.306,40.312,0.043,40.792C-22.247,41.272,-40.335,23.378,-40.335,0.825C-40.335,-21.728,-22.247,-40.362,0.043,-40.794C22.306,-41.225,40.335,-23.33,40.335,-0.825Z" /></g></g></g><g><g transform="translate(1647.106,2047.098)"><g id="i64" transform="scale(0,0)"><animateTransform repeatCount="indefinite" type="scale" attributeName="transform" dur="5s" begin="0s" calcMode="spline" values="0 0; 0 0; 1.081 1.081; 0.9 0.9; 1 1; 1 1; 0.9 0.9; 1.081 1.081; 0 0; 0 0" keyTimes="0; 0.575; 0.641667; 0.675; 0.708333; 0.866667; 0.8875; 0.908333; 0.95; 1" keySplines="0 0 1 1; 0.333 0 0.667 0.726; 0.333 0 0.667 1; 0.333 0 0.667 1; 0.158 0 0.667 1; 0.333 0 0.667 1; 0.333 0 0.667 1; 0.333 0.274 0.667 1; 0 0 1 1" fill="freeze" /><path fill="url(#i15)" d="M40.01,-0.819C40.01,21.595,22.127,40.151,0.043,40.627C-22.067,41.104,-40.01,23.281,-40.01,0.819C-40.01,-21.643,-22.067,-40.201,0.043,-40.629C22.127,-41.057,40.01,-23.234,40.01,-0.819Z" /></g></g></g></g></g><g id="i83"><g transform="translate(1570.231,847.746)"><animateTransform repeatCount="indefinite" type="translate" attributeName="transform" dur="5s" begin="0s" calcMode="spline" values="1570.231 847.746; 1570.231 822.746; 1570.231 878.746; 1570.231 831.746; 1570.231 865.746; 1570.231 847.746; 1570.231 847.746" keyTimes="0; 0.047625; 0.095258; 0.160483; 0.243308; 0.341667; 1" keySplines="0.333 0 0.366 1; 0.333 0 0.366 1; 0.333 0 0.366 1; 0.333 0 0.366 1; 0.333 0 0.366 1; 0 0 1 1" fill="freeze" /><g transform="scale(1,1) translate(-1570.231,-904.746)"><g id="i67" transform="matrix(1,0,0,1,1570.231,904.747)"><path fill="#ffffff" d="M378.08,3.807C378.08,213.291,211.445,383.138,3.815,383.171C-206.142,383.204,-378.08,209.949,-378.08,-3.805C-378.08,-217.559,-206.142,-387.352,3.815,-383.092C211.445,-378.879,378.08,-205.677,378.08,3.807Z" /></g><g id="i68" transform="matrix(1,0,0,1,1573.638,789.278)"><path fill="url(#i16)" d="M154.723,1.969C154.723,88.285,85.806,157.611,0.511,156.811C-85.095,156.008,-154.723,84.919,-154.723,-1.969C-154.723,-88.856,-85.095,-158.174,0.511,-156.798C85.806,-155.427,154.723,-84.347,154.723,1.969Z" /></g><g id="i64" transform="matrix(1,0,0,1,1572.484,1142.93)"><path fill="url(#i17)" d="M1.561,144.987C93.342,144.972,177.062,111.791,241.887,56.823C219.827,-57.291,120.939,-144.075,1.561,-144.98C-118.582,-145.891,-219.276,-59.605,-241.887,55.755C-175.597,111.534,-90.671,145.002,1.561,144.987Z" /></g><g id="i65" transform="matrix(1,0,0,1,1570.231,904.746)"><path fill="#ffffff" d="M3.754,392.471C-100.382,392.471,-198.478,351.25,-272.48,276.392C-346.573,201.441,-387.379,101.933,-387.379,-3.804C-387.379,-110.435,-345.98,-209.728,-270.808,-283.389C-196.938,-355.775,-99.372,-394.51,4.003,-392.389C106.793,-390.302,203.211,-347.93,275.497,-273.078C347.645,-198.369,387.379,-100.035,387.379,3.808C387.379,107.686,347.624,205.261,275.434,278.559C203.104,351.998,106.642,392.455,3.816,392.471C3.796,392.471,3.772,392.471,3.754,392.471ZM-3.959,-373.87C-99.453,-373.87,-189.326,-337.195,-257.791,-270.105C-329.365,-199.971,-368.781,-105.397,-368.781,-3.804C-368.781,97.006,-329.883,191.872,-259.253,263.317C-188.776,334.608,-95.365,373.869,3.754,373.873C3.778,373.873,3.788,373.873,3.812,373.873C205.056,373.84,368.781,207.829,368.781,3.808C368.781,-200.317,204.973,-369.707,3.625,-373.794C1.099,-373.845,-1.44,-373.87,-3.959,-373.87Z" /></g></g></g></g><g transform="matrix(1,0,0,1,0,0)" id="i84"><g id="i85" transform="matrix(1,0,0,1,2305.264,2130.376)"><path fill="url(#i18)" d="M162.676,202.523C204.304,177.373,186.858,44.128,125.671,-47.67C38.791,-178.014,-143.066,-234.985,-178.374,-193.876C-214.508,-151.805,-100.405,-3.219,-81.87,20.916C-14.634,108.474,113.436,232.273,162.676,202.523Z" /></g><g id="i86" transform="matrix(1,0,0,1,3001.999,2896.953)"><path fill="url(#i19)" d="M-61.377,-12.891C-68.512,-3.449,-68.882,12.801,-61.295,20.115C-53.839,27.305,-44.188,20.555,-15.27,18.847C15.707,17.02,24.422,23.596,44.9,15.935C53.173,12.835,67.647,5.814,66.823,-0.218C66.244,-4.46,58.421,-5.979,32.19,-12.245C-5.045,-21.136,-4.945,-21.812,-12.736,-22.398C-32.306,-23.876,-51.954,-25.359,-61.377,-12.891Z" /></g><g id="i87" transform="matrix(1,0,0,1,2939.761,2862.758)"><path fill="url(#i20)" d="M0.274,-29.78C0.274,-29.78,32.807,13.365,32.807,13.365C32.666,16.376,21.042,30.543,6.278,29.747C6.278,29.747,-32.807,-9.352,-32.807,-9.352C-32.807,-9.352,0.274,-29.78,0.274,-29.78Z" /></g><g id="i75" transform="matrix(1,0,0,1,2834.227,3006.369)"><path fill="url(#i21)" d="M-61.682,-12.471C-68.618,-2.879,-68.645,13.375,-60.907,20.528C-53.301,27.56,-43.795,20.608,-14.919,18.291C16.012,15.811,24.865,22.204,45.177,14.114C53.384,10.84,67.706,3.516,66.755,-2.498C66.088,-6.725,58.234,-8.079,31.877,-13.791C-5.537,-21.898,-5.449,-22.575,-13.252,-22.999C-32.848,-24.063,-52.524,-25.133,-61.682,-12.471Z" /></g><g id="i71" transform="matrix(1,0,0,1,2771.017,2973.615)"><path fill="url(#i22)" d="M0.273,-29.78C0.273,-29.78,32.806,13.365,32.806,13.365C32.665,16.376,21.042,30.544,6.277,29.748C6.277,29.748,-32.806,-9.352,-32.806,-9.352C-32.806,-9.352,0.273,-29.78,0.273,-29.78Z" /></g><g id="i72" transform="matrix(1,0,0,1,2076.195,2378.871)"><path fill="url(#i23)" d="M-289.933,-420.971C-241.241,-439.624,-166.598,-461.975,-73.76,-465.436C30.763,-469.334,114.709,-472.466,174.516,-425.233C373.501,-268.083,275.961,146.049,261.579,192.122C244.477,246.913,211.94,284.131,211.94,284.131C192.422,306.457,173.268,319.5,162.895,326.364C13.212,425.407,-79.834,486.974,-178.08,461.818C-191.151,458.47,-250.551,437.869,-283.339,388.45C-289.183,379.641,-292.838,368.351,-293.762,352.576C-309.02,91.886,-278.277,-169.866,-289.933,-420.971Z" /></g><g id="i66" transform="matrix(1,0,0,1,1941.488,2488.724)" opacity="0.3"><path fill="url(#i24)" d="M-69.404,-220.102C-89.369,-274.684,-68.738,-337.185,-113.208,-364.443C-129.504,-374.431,-149.753,-378.658,-171.808,-378.162C-169.078,-186.274,-165.21,5.431,-160.447,205.69C-158.874,271.832,-150.602,275.102,-86.458,333.037C-12.137,400.164,49.021,378.52,158.815,356.493C14.965,268.121,-20.81,220.067,-6.152,141.534C10.918,50.076,178.378,22.991,171.608,-42.025C164.432,-110.932,-25.761,-100.78,-69.404,-220.102Z" /></g><g id="i67" transform="matrix(1,0,0,1,2441.776,2596.428)"><path fill="url(#i25)" d="M-519.902,212.772C-513.821,321.372,-472.992,261.217,-380.569,163.775C-283.23,61.15,-54.201,-119.213,98.665,-50.356C212.515,0.927,201.465,152.638,383.476,247.856C415.537,264.628,443.603,274.247,460.852,279.473C480.57,261.236,500.287,243.001,520.005,224.763C509.423,168.052,462.191,-48.188,264.719,-184.499C216.977,-217.454,125.868,-280.933,10.656,-279.447C-300.818,-275.428,-525.513,112.612,-519.902,212.772Z" /></g><g id="i68" transform="matrix(1,0,0,1,2285.227,2717.897)"><path fill="url(#i26)" d="M-506.858,40.927C-505.555,104.114,-464.295,162.034,-417.813,190.315C-314.625,253.089,-160.097,185.356,-73.544,116.094C31.773,31.821,31.735,-50.745,85.551,-50.339C169.173,-49.707,183.752,150.25,370.362,247.875C402.422,264.647,430.488,274.261,447.739,279.49C467.456,261.253,487.174,243.017,506.889,224.778C474.527,102.328,424.427,13.354,387.48,-42.024C341.395,-111.098,297.037,-177.582,211.134,-225.767C120.684,-276.503,34.26,-278.857,-2.456,-279.43C-234.076,-283.041,-510.256,-123.932,-506.858,40.927Z" /></g><g id="i64" transform="matrix(1,0,0,1,0,0)"><g id="i64" transform="matrix(1,0,0,1,2124.826,2452.759)"><path fill="url(#i27)" d="M282.308,-73.502C282.308,-73.502,-291.068,29.896,-291.068,29.896C-291.068,29.896,-124.678,73.502,-124.678,73.502C-124.678,73.502,291.068,-36.515,291.068,-36.515C291.068,-36.515,282.308,-73.502,282.308,-73.502Z" /></g><g id="i65" transform="matrix(1,0,0,1,1925.469,2520.438)"><path fill="url(#i28)" d="M-108.914,-18.641C-108.914,-18.641,-108.913,-18.636,-108.913,-18.636C-106.818,-7.938,-98.25,0.308,-87.48,1.996C-87.48,1.996,109.22,37.845,109.22,37.845C109.22,37.845,100.331,-11.969,100.331,-11.969C100.331,-11.969,-91.711,-37.783,-91.711,-37.783C-102.386,-38.708,-110.972,-29.152,-108.914,-18.641Z" /></g></g><g id="i65" transform="matrix(1,0,0,1,2016.403,1879.289)"><path fill="url(#i29)" d="M-9.551,-109.023C-7.776,-70.285,-10.951,-39.391,-14.252,-18.193C-18.035,6.096,-21.177,12.45,-25.297,17.667C-25.297,17.667,-26.601,19.319,-28.085,20.801C-31.867,24.575,-79.397,33.835,-93.402,37.105C-94.885,37.451,-122.318,44.121,-130.194,58.873C-130.249,58.975,-130.403,59.262,-130.484,59.702C-133.192,74.451,-48.933,121.223,35.742,106.024C87.564,96.721,133.854,65.226,130.362,49.725C126.847,34.127,75.119,44.504,58.546,16.665C47.016,-2.701,58.062,-31.219,71.49,-54.996C56.673,-80.423,5.266,-83.597,-9.551,-109.023Z" /></g></g><g transform="matrix(1,0,0,1,0,0)" id="i84"><g transform="matrix(1,0,0,1,1682.014,2220.219)" id="i88"><g id="i89"><g transform="translate(-40.208,125.601)"><g transform="rotate(0)"><animateTransform repeatCount="indefinite" type="rotate" attributeName="transform" dur="5s" begin="0s" calcMode="spline" values="0; -11; 2; -10; 5; 0; -11; 2; -10; 0; 0" keyTimes="0; 0.07755; 0.1551; 0.23265; 0.310209; 0.6; 0.67755; 0.7551; 0.83265; 0.908333; 1" keySplines="0.333 0 0.667 1; 0.333 0 0.667 1; 0.333 0 0.667 1; 0.333 0 0.667 1; 0.168 0 0.667 1; 0.333 0 0.667 1; 0.333 0 0.667 1; 0.333 0 0.667 1; 0.333 0 0.667 1; 0 0 1 1" fill="freeze" /><g transform="scale(1,1) translate(130,40)"><g id="i89"><path fill="url(#i30)" d="M153.986,-11.991C76.74,-31.363,41.98,-4.228,22.892,-25.257C18.873,-29.685,17.074,-34.66,16.921,-40.436C16.893,-41.492,16.517,-42.518,15.828,-43.512C14.177,-119.03,-47.553,-179.743,-123.467,-179.743C-200.419,-179.743,-262.801,-117.361,-262.801,-40.409C-262.801,-35.225,-262.509,-30.111,-261.957,-25.074C-262.264,-24.689,-262.56,-24.302,-262.843,-23.911C-262.072,-20.434,-260.875,-15.015,-259.043,-8.166C-257.92,-3.427,-256.553,1.217,-254.96,5.755C-241.525,47.82,-208.811,118.379,-129.609,155.56C-35.925,199.539,87.726,182.7,184.649,111.823C197.829,100.442,211.014,89.066,224.197,77.684C237.079,64.156,249.962,50.628,262.843,37.097C241.238,22.122,204.678,0.721,153.986,-11.991Z" /></g></g></g></g></g></g></g><g transform="matrix(1,0,0,1,0,0)" id="i84"><g transform="matrix(1,0,0,1,1682.014,2220.219)" id="i88"><g id="i89"><g transform="translate(-40.208,125.601)"><g transform="rotate(0)"><animateTransform repeatCount="indefinite" type="rotate" attributeName="transform" dur="5s" begin="0s" calcMode="spline" values="0; -11; 2; -10; 5; 0; -11; 2; -10; 0; 0" keyTimes="0; 0.07755; 0.1551; 0.23265; 0.310209; 0.6; 0.67755; 0.7551; 0.83265; 0.908333; 1" keySplines="0.333 0 0.667 1; 0.333 0 0.667 1; 0.333 0 0.667 1; 0.333 0 0.667 1; 0.168 0 0.667 1; 0.333 0 0.667 1; 0.333 0 0.667 1; 0.333 0 0.667 1; 0.333 0 0.667 1; 0 0 1 1" fill="freeze" /><g transform="scale(1,1) translate(130,40)"><g id="i90"><g transform="translate(159.039,56.304)"><g transform="rotate(0)"><animateTransform repeatCount="indefinite" type="rotate" attributeName="transform" dur="5s" begin="0s" calcMode="spline" values="0; 0; -21; -12; -35; -24; 0; -21; -12; -35; 0; 0" keyTimes="0; 0.006458; 0.084016; 0.161567; 0.239117; 0.316667; 0.606459; 0.684017; 0.761566; 0.839117; 0.916667; 1" keySplines="0 0 1 1; 0.333 0 0.667 1; 0.333 0 0.667 1; 0.333 0 0.667 1; 0.333 0 0.667 1; 0.168 0 0.833 1; 0.333 0 0.667 1; 0.333 0 0.667 1; 0.333 0 0.667 1; 0.333 0 0.833 1; 0 0 1 1" fill="freeze" /><g transform="scale(1,1) translate(54,8)"><g id="i90"><path fill="url(#i31)" d="M-76.159,6.677C-79.82,6.581,-67.255,-38.504,-50.153,-36.933C-33.055,-35.36,55.023,-5.005,65.909,12.465C76.796,29.933,76.797,29.933,76.797,29.933C76.797,29.933,42.82,39.385,20.012,36.385C-2.797,33.384,-46.38,7.452,-76.159,6.677Z" /></g></g></g></g></g></g></g></g></g></g></g><g transform="matrix(1,0,0,1,0,0)" id="i84"><g transform="matrix(1,0,0,1,1682.014,2220.219)" id="i88"><g id="i88"><path fill="url(#i32)" d="M150.148,-258.852C100.735,-286.453,-12.893,-207.935,-74.978,-140.24C-103.835,-108.78,-204.303,0.759,-173.051,141.69C-172.891,142.414,-172.462,143.08,-171.784,143.693C-162.734,211.898,-104.354,264.526,-33.675,264.526C43.039,264.526,105.266,202.528,105.65,125.904C106.348,125.624,119.283,49.817,155.311,-44.17C166.4,-73.098,205.343,-228.022,150.148,-258.852Z" /></g></g></g><g transform="matrix(1,0,0,1,0,-0.001)" id="i91"><g id="i64" transform="matrix(1,0,0,1,0,0)"><g id="i64" transform="matrix(1,0,0,1,2343.766,2310.259)"><path fill="url(#i33)" d="M-335.536,-159.598C-335.536,-159.598,-348.118,216.325,-348.118,216.325C-348.553,229.296,-329.086,247.091,-316.206,245.496C-316.206,245.496,281.651,162.924,281.651,162.924C291.486,161.704,299.151,153.816,300.08,143.95C300.08,143.95,348.079,-221.852,348.079,-221.852C349.332,-235.125,324.749,-246.867,311.486,-245.485C311.486,-245.485,-316.623,-179.899,-316.623,-179.899C-327.112,-178.803,-335.183,-170.139,-335.536,-159.598Z" /></g><g id="i65" transform="matrix(1,0,0,1,2351.656,2316.363)"><path fill="url(#i34)" d="M-328.871,-155.878C-328.871,-155.878,-341.456,220.048,-341.456,220.048C-341.887,233.02,-330.63,243.309,-317.749,241.716C-317.749,241.716,288.318,166.647,288.318,166.647C298.152,165.429,305.817,157.537,306.749,147.674C306.749,147.674,341.372,-218.768,341.372,-218.768C342.626,-232.045,331.416,-243.148,318.153,-241.762C318.153,-241.762,-309.957,-176.176,-309.957,-176.176C-320.445,-175.083,-328.519,-166.416,-328.871,-155.878Z" /></g></g><g id="i65" transform="matrix(1,0,0,1,2336.685,2346.84)" opacity="0.3"><path fill="url(#i35)" d="M64.57,66.466C9.746,47.996,25.227,3.642,-41.559,-45.075C-129.666,-109.346,-211.672,-72.328,-245.356,-124.776C-255.844,-141.112,-262.253,-167.283,-249.502,-211.402C-249.502,-211.402,-294.986,-206.653,-294.986,-206.653C-305.474,-205.56,-313.548,-196.893,-313.9,-186.355C-313.9,-186.355,-326.485,189.57,-326.485,189.57C-326.915,202.54,-315.657,212.832,-302.778,211.239C-302.778,211.239,303.289,136.17,303.289,136.17C313.123,134.952,320.788,127.063,321.72,117.197C321.72,117.197,326.497,66.63,326.497,66.63C307.26,57.763,284.497,50.103,258.367,46.84C167.753,35.528,127.688,87.73,64.57,66.466Z" /></g></g><g id="i92"><g transform="translate(2007.62,1858.37)"><g transform="rotate(0)"><animateTransform repeatCount="indefinite" type="rotate" attributeName="transform" dur="5s" begin="0s" calcMode="spline" values="0; 8; 8; 0; 0" keyTimes="0; 0.125; 0.816667; 0.916667; 1" keySplines="0.333 0 0.667 1; 0.333 0 0.667 1; 0.333 0 0.667 1; 0 0 1 1" fill="freeze" /><g transform="scale(1,1) translate(-2007.62,-1858.37)"><g id="i67" transform="matrix(1,0,0,1,2073.62,1777.955)"><path fill="url(#i36)" d="M44.402,37.494C77.51,27.883,98.872,-86.144,71.014,-99.929C57.691,-106.521,47.82,-82.909,-5.277,-61.783C-47.778,-44.872,-65.739,-50.338,-77.502,-31.688C-89.124,-13.263,-81.979,13.417,-78.32,32.338C-76.732,40.548,-71.419,44.417,-67.229,51.284C-61.424,60.808,-52.376,75.907,-37.721,101.055C-34.863,95.221,-30.9,88.093,-25.456,80.618C-23.36,77.742,-15.022,66.542,9.641,49.786C25.401,39.078,40.613,38.594,44.402,37.494Z" /></g><g id="i68" transform="matrix(1,0,0,1,2055.512,1844.426)"><path fill="url(#i37)" d="M-43.219,10.943C-43.219,10.943,-29.586,50.741,13.594,57.374C52.255,63.312,76.714,-20.926,56.378,-44.441C49.592,-52.285,33.881,-58.39,19.838,-57.605C11.543,-57.14,8.18,-54.48,-5.387,-53.987C-17.905,-53.53,-20.956,-55.581,-25.194,-53.364C-30.494,-50.589,-35.805,-42.09,-33.861,-15.456C-39.508,-24.424,-47.611,-29.177,-54.44,-27.623C-55.529,-27.374,-58.539,-26.173,-60.608,-23.8C-68.092,-15.215,-61.93,-0.778,-43.219,10.943Z" /></g><g id="i64" transform="matrix(1,0,0,1,2056.039,1848.501)"><path fill="url(#i38)" d="M-26.316,-62.931C-24.779,-61.156,-31.914,-55.538,-34.476,-45.925C-39.453,-27.266,-25.378,-0.439,-6.348,5.777C4.903,9.451,9.597,3.217,29.053,5.407C41.099,6.763,50.568,10.426,56.435,13.133C57.845,35.116,47.674,54.477,31.752,60.984C14.61,67.99,-3.006,57.551,-10.37,53.185C-15.296,50.266,-31.092,40.947,-36.541,23.371C-42.217,5.054,-30.955,-2.741,-39.159,-16.093C-43.296,-22.827,-49.811,-26.788,-54.297,-39.047C-55.516,-42.378,-56.189,-45.235,-56.565,-47.14C-44.43,-55.387,-28.539,-65.504,-26.316,-62.931Z" /></g><g id="i65" transform="matrix(1,0,0,1,2085.978,1869.241)"><path fill="url(#i39)" d="M10.969,-3.002C10.969,-3.002,1.787,-0.521,-12.26,-4.461C-12.943,-4.655,-13.752,-4.62,-13.918,-4.28C-14.542,-3.002,-6.754,5.062,2.175,4.556C8.516,4.194,14.41,-0.43,13.925,-2.045C13.717,-2.726,12.349,-2.946,10.969,-3.002Z" /></g></g></g></g></g><g transform="matrix(1,0,0,1,0,0)" id="i93"><g transform="matrix(1,0,0,1,0,0.001)" id="i94"><g id="i67" transform="matrix(1,0,0,1,475.422,2796.53)"><path fill="url(#i40)" d="M32.219,-28.702C36.439,-19.696,41.207,-6.5,42.466,9.918C43.018,17.113,42.796,23.64,42.222,29.296C37.581,36.137,15.882,59.626,-13.421,65.425C-31.549,69.012,-60.936,53.645,-27.645,32.844C5.646,12.043,10.621,7.035,0.836,-46.134C-1.682,-59.813,-0.692,-64.818,1.456,-65.78C6.475,-68.028,20.773,-47.05,32.219,-28.702Z" /></g><g id="i68" transform="matrix(1,0,0,1,628.952,2837.143)"><path fill="url(#i41)" d="M32.219,-28.702C36.439,-19.696,41.206,-6.5,42.465,9.918C43.017,17.113,42.796,23.64,42.222,29.296C37.581,36.137,15.882,59.626,-13.421,65.425C-31.549,69.012,-60.936,53.645,-27.645,32.844C5.646,12.043,10.621,7.035,0.836,-46.134C-1.682,-59.813,-0.692,-64.818,1.456,-65.78C6.475,-68.028,20.773,-47.05,32.219,-28.702Z" /></g><g id="i64" transform="matrix(1,0,0,1,605.266,2218.219)"><path fill="url(#i42)" d="M215.572,-520.595C226.579,-453.568,237.586,-386.539,248.593,-319.512C224.487,-256.103,202.068,-187.015,183.074,-112.401C114.463,157.125,71.68,416.712,68.55,602.663C53.447,608.128,38.344,613.59,23.241,619.055C-3.821,516.87,4.356,362.359,-19.703,180.158C-48.128,-35.101,-28.8,-203.383,-38.695,-203.973C-48.179,-204.539,-74.741,-50.479,-74.789,125.454C-74.84,311.432,-96.232,461.163,-82.444,568.657C-100.54,569.737,-118.635,570.818,-136.731,571.898C-186.843,429.746,-208.739,260.38,-234.109,36.433C-251.727,-119.088,-272.52,-325.693,-168.621,-538.845C-158.246,-560.13,-122.025,-607.379,-115.234,-619.055C3.912,-596.258,96.426,-543.392,215.572,-520.595Z" /></g><g id="i65" transform="matrix(1,0,0,1,611.541,2211.914)" opacity="0.25"><path fill="url(#i43)" d="M176.799,-106.096C195.793,-180.711,218.212,-249.799,242.318,-313.208C231.311,-380.235,220.304,-447.264,209.297,-514.291C90.151,-537.088,-2.362,-589.953,-121.509,-612.75C-128.3,-601.075,-164.52,-553.826,-174.895,-532.541C-209.919,-460.686,-230.734,-389.586,-242.318,-320.927C-11.808,-323.445,54.901,-275.444,73.266,-231.2C102.502,-160.765,13.587,-89.34,45.045,53.206C54.506,96.076,68.635,117.201,70.294,170.903C72.471,241.377,49.471,248.21,45.869,319.899C41.928,398.336,14.761,474.996,27.499,530.596C35.418,565.161,44.692,593.265,51.818,612.75C55.304,611.489,58.789,610.228,62.275,608.966C65.405,423.016,108.188,163.429,176.799,-106.096Z" /></g></g></g><g transform="matrix(1,0,0,1,0,0)" id="i93"><g id="i95"><g transform="translate(663.185,964.886)"><g transform="rotate(0)"><animateTransform repeatCount="indefinite" type="rotate" attributeName="transform" dur="5s" begin="0s" calcMode="spline" values="0; 0; -6; -6; 0; 0" keyTimes="0; 0.258333; 0.525; 0.8; 0.983333; 1" keySplines="0 0 1 1; 0.333 0 0.12 1; 0.167 0 0.667 1; 0.545 0 0.667 1; 0 0 1 1" fill="freeze" /><g transform="scale(1,1) translate(-28,-50)"><g transform="matrix(1,0,0,1,-11.914,2.787)" id="i96"><g id="i96"><path d="M98.799,-150.224C106.19,-140.347,95.21,-127.095,93.018,-78.854C92.015,-56.788,93.346,-38.285,94.833,-25.143C95.252,-13.253,95.924,-2.228,96.852,7.511C97.532,14.657,98.261,20.242,99.288,26.185C101.189,37.21,103.915,48.143,107.385,58.681C107.615,59.378,107.27,60.124,106.609,60.41C106.57,60.427,106.53,60.442,106.489,60.455C105.751,60.7,104.956,60.298,104.713,59.559C101.199,48.892,98.441,37.825,96.513,26.666C95.474,20.648,94.738,14.998,94.05,7.777C93.561,2.644,93.148,-2.865,92.798,-8.638C91.219,6.568,90.896,23.366,96.302,45.796C112.71,113.872,59.871,158.681,18.224,160.483C-29.804,162.561,-32.36,117.502,-42.428,105.048C-83.009,54.849,-88.821,-30.959,-50.655,-90.789C-0.657,-169.169,80.686,-174.431,98.799,-150.224Z" fill="url(#i44)"><animate repeatCount="indefinite" attributeName="d" dur="5s" begin="0s" calcMode="spline" values="M98.799,-150.224C106.19,-140.347,95.21,-127.095,93.018,-78.854C92.015,-56.788,93.346,-38.285,94.833,-25.143C95.252,-13.253,95.924,-2.228,96.852,7.511C97.532,14.657,98.261,20.242,99.288,26.185C101.189,37.21,103.915,48.143,107.385,58.681C107.615,59.378,107.27,60.124,106.609,60.41C106.57,60.427,106.53,60.442,106.489,60.455C105.751,60.7,104.956,60.298,104.713,59.559C101.199,48.892,98.441,37.825,96.513,26.666C95.474,20.648,94.738,14.998,94.05,7.777C93.561,2.644,93.148,-2.865,92.798,-8.638C91.219,6.568,90.896,23.366,96.302,45.796C112.71,113.872,59.871,158.681,18.224,160.483C-29.804,162.561,-32.36,117.502,-42.428,105.048C-83.009,54.849,-88.821,-30.959,-50.655,-90.789C-0.657,-169.169,80.686,-174.431,98.799,-150.224Z; M98.799,-150.224C106.19,-140.347,95.21,-127.095,93.018,-78.854C92.015,-56.788,93.346,-38.285,94.833,-25.143C95.252,-13.253,95.924,-2.228,96.852,7.511C97.532,14.657,98.262,20.242,99.288,26.185C101.189,37.21,103.915,48.143,107.385,58.681C107.615,59.378,107.27,60.124,106.609,60.41C106.57,60.427,106.53,60.442,106.489,60.455C105.751,60.7,104.956,60.298,104.713,59.559C101.199,48.892,98.441,37.825,96.513,26.666C95.474,20.648,94.738,14.998,94.05,7.777C93.561,2.644,93.148,-2.865,92.798,-8.638C91.219,6.568,90.896,23.366,96.302,45.796C112.71,113.872,59.871,158.681,18.224,160.483C-29.804,162.561,-50.342,121.698,-60.41,109.244C-100.991,59.045,-108.002,-24.366,-69.836,-84.196C-19.838,-162.576,80.686,-174.431,98.799,-150.224Z; M98.799,-150.224C106.19,-140.347,95.21,-127.095,93.018,-78.854C92.015,-56.788,93.346,-38.285,94.833,-25.143C95.252,-13.253,95.924,-2.228,96.852,7.511C97.532,14.657,98.261,20.242,99.288,26.185C101.189,37.21,103.915,48.143,107.385,58.681C107.615,59.378,107.27,60.124,106.609,60.41C106.57,60.427,106.53,60.442,106.489,60.455C105.751,60.7,104.956,60.298,104.713,59.559C101.199,48.892,98.441,37.825,96.513,26.666C95.474,20.648,94.738,14.998,94.05,7.777C93.561,2.644,93.148,-2.865,92.798,-8.638C91.219,6.568,90.896,23.366,96.302,45.796C112.71,113.872,59.871,158.681,18.224,160.483C-29.804,162.561,-32.36,117.502,-42.428,105.048C-83.009,54.849,-88.821,-30.959,-50.655,-90.789C-0.657,-169.169,80.686,-174.431,98.799,-150.224Z; M98.799,-150.224C106.19,-140.347,95.21,-127.095,93.018,-78.854C92.015,-56.788,93.346,-38.285,94.833,-25.143C95.252,-13.253,95.924,-2.228,96.852,7.511C97.532,14.657,98.262,20.242,99.288,26.185C101.189,37.21,103.915,48.143,107.385,58.681C107.615,59.378,107.27,60.124,106.609,60.41C106.57,60.427,106.53,60.442,106.489,60.455C105.751,60.7,104.956,60.298,104.713,59.559C101.199,48.892,98.441,37.825,96.513,26.666C95.474,20.648,94.738,14.998,94.05,7.777C93.561,2.644,93.148,-2.865,92.798,-8.638C91.219,6.568,90.896,23.366,96.302,45.796C112.71,113.872,59.871,158.681,18.224,160.483C-29.804,162.561,-50.342,121.698,-60.41,109.244C-100.991,59.045,-108.002,-24.366,-69.836,-84.196C-19.838,-162.576,80.686,-174.431,98.799,-150.224Z; M98.799,-150.224C106.19,-140.347,95.21,-127.095,93.018,-78.854C92.015,-56.788,93.346,-38.285,94.833,-25.143C95.252,-13.253,95.924,-2.228,96.852,7.511C97.532,14.657,98.261,20.242,99.288,26.185C101.189,37.21,103.915,48.143,107.385,58.681C107.615,59.378,107.27,60.124,106.609,60.41C106.57,60.427,106.53,60.442,106.489,60.455C105.751,60.7,104.956,60.298,104.713,59.559C101.199,48.892,98.441,37.825,96.513,26.666C95.474,20.648,94.738,14.998,94.05,7.777C93.561,2.644,93.148,-2.865,92.798,-8.638C91.219,6.568,90.896,23.366,96.302,45.796C112.71,113.872,59.871,158.681,18.224,160.483C-29.804,162.561,-32.36,117.502,-42.428,105.048C-83.009,54.849,-88.821,-30.959,-50.655,-90.789C-0.657,-169.169,80.686,-174.431,98.799,-150.224Z; M98.799,-150.224C106.19,-140.347,95.21,-127.095,93.018,-78.854C92.015,-56.788,93.346,-38.285,94.833,-25.143C95.252,-13.253,95.924,-2.228,96.852,7.511C97.532,14.657,98.262,20.242,99.288,26.185C101.189,37.21,103.915,48.143,107.385,58.681C107.615,59.378,107.27,60.124,106.609,60.41C106.57,60.427,106.53,60.442,106.489,60.455C105.751,60.7,104.956,60.298,104.713,59.559C101.199,48.892,98.441,37.825,96.513,26.666C95.474,20.648,94.738,14.998,94.05,7.777C93.561,2.644,93.148,-2.865,92.798,-8.638C91.219,6.568,90.896,23.366,96.302,45.796C112.71,113.872,59.871,158.681,18.224,160.483C-29.804,162.561,-50.342,121.698,-60.41,109.244C-100.991,59.045,-108.002,-24.366,-69.836,-84.196C-19.838,-162.576,80.686,-174.431,98.799,-150.224Z; M98.799,-150.224C106.19,-140.347,95.21,-127.095,93.018,-78.854C92.015,-56.788,93.346,-38.285,94.833,-25.143C95.252,-13.253,95.924,-2.228,96.852,7.511C97.532,14.657,98.261,20.242,99.288,26.185C101.189,37.21,103.915,48.143,107.385,58.681C107.615,59.378,107.27,60.124,106.609,60.41C106.57,60.427,106.53,60.442,106.489,60.455C105.751,60.7,104.956,60.298,104.713,59.559C101.199,48.892,98.441,37.825,96.513,26.666C95.474,20.648,94.738,14.998,94.05,7.777C93.561,2.644,93.148,-2.865,92.798,-8.638C91.219,6.568,90.896,23.366,96.302,45.796C112.71,113.872,59.871,158.681,18.224,160.483C-29.804,162.561,-32.36,117.502,-42.428,105.048C-83.009,54.849,-88.821,-30.959,-50.655,-90.789C-0.657,-169.169,80.686,-174.431,98.799,-150.224Z; M98.799,-150.224C106.19,-140.347,95.21,-127.095,93.018,-78.854C92.015,-56.788,93.346,-38.285,94.833,-25.143C95.252,-13.253,95.924,-2.228,96.852,7.511C97.532,14.657,98.262,20.242,99.288,26.185C101.189,37.21,103.915,48.143,107.385,58.681C107.615,59.378,107.27,60.124,106.609,60.41C106.57,60.427,106.53,60.442,106.489,60.455C105.751,60.7,104.956,60.298,104.713,59.559C101.199,48.892,98.441,37.825,96.513,26.666C95.474,20.648,94.738,14.998,94.05,7.777C93.561,2.644,93.148,-2.865,92.798,-8.638C91.219,6.568,90.896,23.366,96.302,45.796C112.71,113.872,59.871,158.681,18.224,160.483C-29.804,162.561,-50.342,121.698,-60.41,109.244C-100.991,59.045,-108.002,-24.366,-69.836,-84.196C-19.838,-162.576,80.686,-174.431,98.799,-150.224Z" keyTimes="0; 0.25; 0.5; 0.749999; 1; 1; 1; 1" keySplines="0.333 0 0.833 0.833; 0.167 0.167 0.667 1; 0.333 0 0.833 0.833; 0.167 0.167 0.667 1; 0.333 0 0.833 0.833; 0.167 0.167 0.667 1; 0.333 0 0.833 0.833" fill="freeze" /></path></g></g></g></g></g></g></g><g transform="matrix(1,0,0,1,0,0)" id="i93"><g id="i95"><g transform="translate(663.185,964.886)"><g transform="rotate(0)"><animateTransform repeatCount="indefinite" type="rotate" attributeName="transform" dur="5s" begin="0s" calcMode="spline" values="0; 0; -6; -6; 0; 0" keyTimes="0; 0.258333; 0.525; 0.8; 0.983333; 1" keySplines="0 0 1 1; 0.333 0 0.12 1; 0.167 0 0.667 1; 0.545 0 0.667 1; 0 0 1 1" fill="freeze" /><g transform="scale(1,1) translate(-28,-50)"><g transform="matrix(1,0,0,1,263.282,155.305)" id="i97"><g id="i97"><path d="M-297.844,-237.203C-295.789,-244.812,-286.495,-275.837,-258.096,-295.289C-204.215,-332.194,-117.849,-302.582,-68.33,-259.123C-16.514,-213.648,-38.064,-182.189,12.871,-131.695C68.193,-76.851,107.015,-100.803,183.907,-47.826C214.152,-26.988,295.661,29.171,301.109,116.777C305.817,192.478,252.279,268.286,186.77,297.534C74.62,347.606,-65.826,258.185,-132.091,175.953C-195.646,97.084,-152.762,77.777,-243.123,-74.546C-275.794,-129.62,-313.199,-180.342,-297.844,-237.203Z" fill="url(#i45)"><animate repeatCount="indefinite" attributeName="d" dur="5s" begin="0s" calcMode="spline" values="M-297.844,-237.203C-295.789,-244.812,-286.495,-275.837,-258.096,-295.289C-204.215,-332.194,-117.849,-302.582,-68.33,-259.123C-16.514,-213.648,-38.064,-182.189,12.871,-131.695C68.193,-76.851,107.015,-100.803,183.907,-47.826C214.152,-26.988,295.661,29.171,301.109,116.777C305.817,192.478,252.279,268.286,186.77,297.534C74.62,347.606,-65.826,258.185,-132.091,175.953C-195.646,97.084,-152.762,77.777,-243.123,-74.546C-275.794,-129.62,-313.199,-180.342,-297.844,-237.203Z; M-297.844,-237.203C-295.789,-244.812,-281.841,-270.982,-258.096,-295.289C-216.354,-336.987,-136.431,-302.582,-86.912,-259.123C-35.096,-213.648,-28.473,-187.583,22.462,-137.089C77.784,-82.245,107.015,-100.803,183.907,-47.826C214.152,-26.988,271.085,20.18,276.533,107.786C281.241,183.487,232.051,242.226,175.98,276.555C72.387,341.088,-65.826,258.185,-132.091,175.953C-195.646,97.084,-152.762,77.778,-243.123,-74.546C-275.794,-129.62,-313.199,-180.342,-297.844,-237.203Z; M-297.844,-237.203C-295.789,-244.812,-286.495,-275.837,-258.096,-295.289C-204.215,-332.194,-117.849,-302.582,-68.33,-259.123C-16.514,-213.648,-38.064,-182.189,12.871,-131.695C68.193,-76.851,107.015,-100.803,183.907,-47.826C214.152,-26.988,295.661,29.171,301.109,116.777C305.817,192.478,252.279,268.286,186.77,297.534C74.62,347.606,-65.826,258.185,-132.091,175.953C-195.646,97.084,-152.762,77.777,-243.123,-74.546C-275.794,-129.62,-313.199,-180.342,-297.844,-237.203Z; M-297.844,-237.203C-295.789,-244.812,-281.841,-270.982,-258.096,-295.289C-216.354,-336.987,-136.431,-302.582,-86.912,-259.123C-35.096,-213.648,-28.473,-187.583,22.462,-137.089C77.784,-82.245,107.015,-100.803,183.907,-47.826C214.152,-26.988,271.085,20.18,276.533,107.786C281.241,183.487,232.051,242.226,175.98,276.555C72.387,341.088,-65.826,258.185,-132.091,175.953C-195.646,97.084,-152.762,77.778,-243.123,-74.546C-275.794,-129.62,-313.199,-180.342,-297.844,-237.203Z; M-297.844,-237.203C-295.789,-244.812,-286.495,-275.837,-258.096,-295.289C-204.215,-332.194,-117.849,-302.582,-68.33,-259.123C-16.514,-213.648,-38.064,-182.189,12.871,-131.695C68.193,-76.851,107.015,-100.803,183.907,-47.826C214.152,-26.988,295.661,29.171,301.109,116.777C305.817,192.478,252.279,268.286,186.77,297.534C74.62,347.606,-65.826,258.185,-132.091,175.953C-195.646,97.084,-152.762,77.777,-243.123,-74.546C-275.794,-129.62,-313.199,-180.342,-297.844,-237.203Z; M-297.844,-237.203C-295.789,-244.812,-281.841,-270.982,-258.096,-295.289C-216.354,-336.987,-136.431,-302.582,-86.912,-259.123C-35.096,-213.648,-28.473,-187.583,22.462,-137.089C77.784,-82.245,107.015,-100.803,183.907,-47.826C214.152,-26.988,271.085,20.18,276.533,107.786C281.241,183.487,232.051,242.226,175.98,276.555C72.387,341.088,-65.826,258.185,-132.091,175.953C-195.646,97.084,-152.762,77.778,-243.123,-74.546C-275.794,-129.62,-313.199,-180.342,-297.844,-237.203Z; M-297.844,-237.203C-295.789,-244.812,-286.495,-275.837,-258.096,-295.289C-204.215,-332.194,-117.849,-302.582,-68.33,-259.123C-16.514,-213.648,-38.064,-182.189,12.871,-131.695C68.193,-76.851,107.015,-100.803,183.907,-47.826C214.152,-26.988,295.661,29.171,301.109,116.777C305.817,192.478,252.279,268.286,186.77,297.534C74.62,347.606,-65.826,258.185,-132.091,175.953C-195.646,97.084,-152.762,77.777,-243.123,-74.546C-275.794,-129.62,-313.199,-180.342,-297.844,-237.203Z; M-297.844,-237.203C-295.789,-244.812,-281.841,-270.982,-258.096,-295.289C-216.354,-336.987,-136.431,-302.582,-86.912,-259.123C-35.096,-213.648,-28.473,-187.583,22.462,-137.089C77.784,-82.245,107.015,-100.803,183.907,-47.826C214.152,-26.988,271.085,20.18,276.533,107.786C281.241,183.487,232.051,242.226,175.98,276.555C72.387,341.088,-65.826,258.185,-132.091,175.953C-195.646,97.084,-152.762,77.778,-243.123,-74.546C-275.794,-129.62,-313.199,-180.342,-297.844,-237.203Z" keyTimes="0; 0.25; 0.5; 0.749999; 1; 1; 1; 1" keySplines="0.333 0 0.833 0.833; 0.167 0.167 0.667 1; 0.333 0 0.833 0.833; 0.167 0.167 0.667 1; 0.333 0 0.833 0.833; 0.167 0.167 0.667 1; 0.333 0 0.833 0.833" fill="freeze" /></path></g></g></g></g></g></g></g><g transform="matrix(1,0,0,1,0,0)" id="i93"><g id="i64" transform="matrix(1,0,0,1,410.504,1272.375)"><path fill="url(#i46)" d="M-206.25,142.243C-222.14,95.565,-211.011,41.905,-186.488,4.398C-145.047,-58.98,-91.034,-36.952,-36.935,-107.235C-1.94,-152.698,29.908,-191.523,68.764,-220.601C97.349,-241.993,164.989,-266.223,191.414,-249.404C270.476,-199.076,125.414,229.442,-34.52,253.836C-98.513,263.595,-182.364,212.407,-206.25,142.243Z" /></g><g id="i66" transform="matrix(1,0,0,1,636.25,1467.719)"><path fill="url(#i47)" d="M-116.447,-413.934C-157.414,-372.463,-168.444,-322.602,-171.672,-300.318C-181.713,-230.996,-154.486,-174.454,-148.092,-159.6C-117.882,-89.423,-129.011,48.898,-305.109,346.756C-288.37,360.709,-230.655,463.992,-203.358,414.464C-166.142,346.939,2.696,-128.178,-160.143,434.86C-162.289,442.279,-145.695,440.786,-138.151,443.603C-84.064,463.798,-19.108,478.502,54.696,477.582C170.37,476.141,258.512,436.936,305.109,411.734C273.513,338.066,240.433,238.366,226.281,117.36C199.283,-113.481,255.461,-299.649,294.613,-400.037C258.911,-424.716,145.836,-496.188,12.049,-473.09C-21.286,-467.335,-73.296,-457.616,-116.447,-413.934Z" /></g><g id="i67" transform="matrix(1,0,0,1,704.549,1463.852)" opacity="0.3"><path fill="url(#i48)" d="M157.983,121.227C130.985,-109.614,187.161,-295.782,226.314,-396.17C190.612,-420.849,77.537,-492.322,-56.25,-469.224C-89.585,-463.468,-141.595,-453.748,-184.745,-410.067C-217.363,-377.047,-230.976,-338.756,-236.81,-313.251C-235.811,-313.42,-234.434,-313.641,-232.793,-313.868C-150.399,-325.247,-55.239,-258.963,-22.707,-196.257C31.583,-91.613,-93.306,-6.112,-90.182,159.727C-88.493,249.377,-49.529,355.38,69.587,473.756C144.461,460.822,202.147,434.349,236.81,415.603C205.214,341.934,172.135,242.232,157.983,121.227Z" /></g><g id="i68" transform="matrix(1,0,0,1,660.092,1022.325)"><path fill="url(#i49)" d="M0.987,-87.218C-2.092,-59.824,-2.162,-57.092,10.762,-37.103C18.636,-24.924,31.67,-18.139,44.54,-11.746C74.956,3.364,89.071,-2.773,95.075,6.394C108.289,26.57,70.872,103.565,9.84,110.251C-50.899,116.904,-105.867,50.728,-96.725,22.776C-88.476,-2.446,-28.682,5.462,-17.993,-26.411C-12.611,-42.458,-22.463,-60.277,-31.109,-72.345C-31.109,-72.345,-38.262,-71.719,-38.262,-71.719C-38.262,-71.719,0.987,-87.218,0.987,-87.218Z" /></g><g id="i65" transform="matrix(1,0,0,1,689.823,1004.433)" opacity="0.4"><path fill="url(#i50)" d="M65.344,24.286C59.34,15.12,45.225,21.254,14.809,6.145C1.938,-0.247,-11.094,-7.033,-18.968,-19.212C-31.892,-39.201,-35.323,-40.933,-28.744,-69.326C-28.744,-69.326,-67.993,-53.828,-67.993,-53.828C-67.993,-53.828,-60.84,-54.453,-60.84,-54.453C-53.978,-44.875,-46.484,-31.677,-46.323,-18.613C-42.125,-15.711,-38.58,-12.524,-36.068,-9.432C-44.034,7.751,-46.736,22.585,-47.772,32.179C-49.388,47.138,-50.587,58.249,-44.169,68.747C-37.168,80.199,-25.204,84.212,-14.743,87.721C8.499,95.517,30.218,92.928,44.487,89.51C64.213,64.858,72.764,35.615,65.344,24.286Z" /></g></g><g transform="matrix(1,0,0,1,0,0)" id="i93"><g id="i95"><g transform="translate(663.185,964.886)"><g transform="rotate(0)"><animateTransform repeatCount="indefinite" type="rotate" attributeName="transform" dur="5s" begin="0s" calcMode="spline" values="0; 0; -6; -6; 0; 0" keyTimes="0; 0.258333; 0.525; 0.8; 0.983333; 1" keySplines="0 0 1 1; 0.333 0 0.12 1; 0.167 0 0.667 1; 0.545 0 0.667 1; 0 0 1 1" fill="freeze" /><g transform="scale(1,1) translate(-28,-50)"><g id="i95"><path fill="url(#i51)" d="M33.735,19.679C33.735,19.679,35.755,50.27,5.984,55.391C-30.698,61.701,-50.914,-34.498,-42.909,-41.521C-33.626,-49.666,-21.951,-35.452,1.233,-44.95C10.995,-48.949,17.591,-63.46,25.077,-50.254C33.594,-35.229,33.371,-6.083,33.371,-6.083C33.371,-6.083,40.896,-14.729,43.677,-6.297C47.316,4.738,39.998,13.232,33.735,19.679Z" /></g></g></g></g></g></g><g transform="matrix(1,0,0,1,0,0)" id="i93"><g id="i95"><g transform="translate(663.185,964.886)"><g transform="rotate(0)"><animateTransform repeatCount="indefinite" type="rotate" attributeName="transform" dur="5s" begin="0s" calcMode="spline" values="0; 0; -6; -6; 0; 0" keyTimes="0; 0.258333; 0.525; 0.8; 0.983333; 1" keySplines="0 0 1 1; 0.333 0 0.12 1; 0.167 0 0.667 1; 0.545 0 0.667 1; 0 0 1 1" fill="freeze" /><g transform="scale(1,1) translate(-28,-50)"><g transform="matrix(1,0,0,1,9.769,-49.02)" id="i98"><g id="i65"><path fill="url(#i52)" d="M-30.765,-42.716C-43.756,-31.952,-52.645,-9.377,-45.712,3.152C-35.752,21.151,0.664,7.209,12.687,29.21C17.958,38.856,16.302,51.314,19.54,51.444C22.222,51.551,24.693,43.058,26.966,36.093C39.495,-2.302,49.74,-5.696,47.922,-17.249C44.228,-40.731,-4.092,-64.818,-30.765,-42.716Z" /></g></g></g></g></g></g></g><g transform="matrix(1,0,0,1,0,0)" id="i93"><g transform="matrix(1,0,0,1,927.897,1304.886)" id="i99"><g id="i100"><g transform="translate(54.264,168.821)"><g transform="rotate(11)"><animateTransform repeatCount="indefinite" type="rotate" attributeName="transform" dur="5s" begin="0s" calcMode="spline" values="11; 0; 4.385; 0; 18; 18; -6; 2.45; -6; 11; 11" keyTimes="0; 0.091408; 0.171534; 0.25165; 0.441666; 0.6; 0.731941; 0.801083; 0.879559; 0.991667; 1" keySplines="0.333 0 0.27 1; 0.308 0 0.648 0; 0.331 0 0.667 1; 0.333 0 0.667 1; 0.167 0 0.833 1; 0.167 0 0.833 1; 0.191 0 0.571 0.499; 0.333 0 0.833 1; 0.191 0 0.704 1; 0 0 1 1" fill="freeze" /><g transform="scale(1,1) translate(-173,56)"><g id="i101"><g transform="translate(-244.814,-88.289)"><g transform="rotate(15)"><animateTransform repeatCount="indefinite" type="rotate" attributeName="transform" dur="5s" begin="0s" calcMode="spline" values="15; 15; 0; 4.218; 0; 0; 15; 6; 15; 15" keyTimes="0; 0.007625; 0.098092; 0.178216; 0.258333; 0.733333; 0.8; 0.875; 0.991667; 1" keySplines="0 0 1 1; 0.333 0 0.256 1; 0.311 0 0.649 0; 0.326 0 0.667 1; 0.167 0 0.667 1; 0.167 0 0.833 1; 0.167 0 0.833 1; 0.167 0 0.833 1; 0 0 1 1" fill="freeze" /><g transform="scale(1,1) translate(-33,-24)"><g id="i101"><path fill="url(#i53)" d="M41.206,11.732C41.206,11.732,29.864,1.147,29.864,1.147C29.864,1.147,13.748,-20.897,1.606,-31.573C-10.535,-42.249,-22.426,-44.4,-35.317,-34.127C-48.208,-23.854,-37.257,-6.862,-27.938,7.964C-22.268,16.983,-6.29,22.701,7.012,26.16C16.363,28.592,32.74,40.804,32.74,40.804C32.74,40.804,41.206,11.732,41.206,11.732Z" /></g></g></g></g></g></g></g></g></g></g></g><g transform="matrix(1,0,0,1,0,0)" id="i93"><g id="i102"><g transform="translate(278.134,1485.199)"><g transform="rotate(0)"><animateTransform repeatCount="indefinite" type="rotate" attributeName="transform" dur="5s" begin="0s" calcMode="spline" values="0; 0; 7; 7; 0; 0" keyTimes="0; 0.25; 0.4; 0.5; 0.6; 1" keySplines="0 0 1 1; 0.333 0 0.667 1; 0.333 0 0.833 1; 0.167 0 0.667 1; 0 0 1 1" fill="freeze" /><g transform="scale(1,1) translate(-278.134,-1485.199)"><g transform="matrix(1,0,0,1,0,0)" id="i103"><g id="i64" transform="matrix(1,0,0,1,428.67,1348.269)"><path fill="url(#i54)" d="M-114.724,-127.754C-114.724,-127.754,-21.205,103.603,-21.205,103.603C-19.619,107.889,-16.145,111.204,-11.79,112.587C-11.79,112.587,96.017,146.829,96.017,146.829C107.154,150.366,117.812,140.227,114.836,128.928C114.836,128.928,57.203,-89.802,57.203,-89.802C55.884,-94.808,52.111,-105.915,42.565,-108.947C42.565,-108.947,-88.75,-146.902,-88.75,-146.902C-100.452,-150.37,-118.957,-139.201,-114.724,-127.754Z" /></g><g id="i65" transform="matrix(1,0,0,1,421.96,1348.114)"><path fill="url(#i55)" d="M-109.2,-123.934C-109.2,-123.934,-26.397,99.977,-26.397,99.977C-24.811,104.263,-21.338,107.579,-16.983,108.962C-16.983,108.962,90.824,143.203,90.824,143.203C101.961,146.74,112.619,136.601,109.642,125.302C109.642,125.302,52.011,-93.428,52.011,-93.428C50.692,-98.434,46.856,-102.389,41.892,-103.861C41.892,-103.861,-91.087,-143.285,-91.087,-143.285C-102.789,-146.754,-113.434,-135.382,-109.2,-123.934Z" /></g></g></g></g></g></g></g><g transform="matrix(1,0,0,1,0,0)" id="i93"><g transform="matrix(1,0,0,1,927.897,1304.886)" id="i99"><g id="i100"><g transform="translate(54.264,168.821)"><g transform="rotate(11)"><animateTransform repeatCount="indefinite" type="rotate" attributeName="transform" dur="5s" begin="0s" calcMode="spline" values="11; 0; 4.385; 0; 18; 18; -6; 2.45; -6; 11; 11" keyTimes="0; 0.091408; 0.171534; 0.25165; 0.441666; 0.6; 0.731941; 0.801083; 0.879559; 0.991667; 1" keySplines="0.333 0 0.27 1; 0.308 0 0.648 0; 0.331 0 0.667 1; 0.333 0 0.667 1; 0.167 0 0.833 1; 0.167 0 0.833 1; 0.191 0 0.571 0.499; 0.333 0 0.833 1; 0.191 0 0.704 1; 0 0 1 1" fill="freeze" /><g transform="scale(1,1) translate(-173,56)"><g id="i100"><path fill="url(#i56)" d="M246.793,-57.713C246.793,-98.346,213.854,-131.284,173.221,-131.284C143.589,-131.284,118.067,-113.758,106.409,-88.514C98.992,-83.14,80.044,-85.502,49.557,-83.821C-41.796,-78.788,-63.981,-46.915,-117.388,-49.774C-148.764,-51.454,-192.017,-65.18,-242.367,-119.494C-243.842,-95.943,-245.318,-72.392,-246.793,-48.84C-238.766,-25.344,-205.706,62.396,-116.069,106.776C-5.958,161.295,123.475,117.685,194.399,46.254C215.912,24.588,231.421,-0.987,241.723,-28.985C241.618,-29.338,241.497,-29.679,241.388,-30.03C244.863,-38.577,246.793,-47.917,246.793,-57.713Z" /></g></g></g></g></g></g></g><g transform="matrix(1,0,0,1,0,0)" id="i93"><g id="i102"><g transform="translate(278.134,1485.199)"><g transform="rotate(0)"><animateTransform repeatCount="indefinite" type="rotate" attributeName="transform" dur="5s" begin="0s" calcMode="spline" values="0; 0; 7; 7; 0; 0" keyTimes="0; 0.25; 0.4; 0.5; 0.6; 1" keySplines="0 0 1 1; 0.333 0 0.667 1; 0.333 0 0.833 1; 0.167 0 0.667 1; 0 0 1 1" fill="freeze" /><g transform="scale(1,1) translate(-278.134,-1485.199)"><g id="i64" transform="matrix(1,0,0,1,337.347,1286.866)"><path fill="url(#i57)" d="M-12.009,41.067C-12.009,41.067,-1.333,29.81,-1.333,29.81C-1.333,29.81,20.843,13.875,31.615,1.819C42.389,-10.235,44.637,-22.108,34.469,-35.081C24.3,-48.056,7.22,-37.243,-7.68,-28.045C-16.745,-22.449,-22.592,-6.515,-26.159,6.757C-28.667,16.09,-41.011,32.367,-41.011,32.367C-41.011,32.367,-12.009,41.067,-12.009,41.067Z" /></g><g id="i65" transform="matrix(1,0,0,1,297.757,1405.891)"><path fill="url(#i58)" d="M-3.198,-100.707C10.625,-93.812,24.452,-86.923,38.275,-80.028C42.506,-74.644,92.873,-8.524,65.985,54.879C62.487,63.127,49.263,94.312,23.183,99.833C-17.063,108.355,-75.693,53.187,-73.802,-6.034C-72.534,-45.726,-44.24,-82.187,-3.198,-100.707Z" /></g></g></g></g></g></g><g transform="matrix(1,0,0,1,0,0)" id="i93"><g transform="matrix(1,0,0,1,927.897,1304.886)" id="i99"><g id="i99"><path fill="url(#i59)" d="M-8.826,-217.271C-53.607,-250.077,-57.67,-237.945,-98.13,-240.51C-158.044,-98.026,-141.89,-21.978,-115.226,21.285C-80.49,77.645,-8.703,109.573,-8.916,129.793C-15.37,140.735,-19.087,153.485,-19.087,167.108C-19.087,207.741,13.852,240.68,54.485,240.68C83.648,240.68,108.846,223.712,120.749,199.109C121.739,198.252,122.497,197.169,122.987,195.836C173.749,57.875,98.074,-138.959,-8.826,-217.271Z" /></g></g></g><g transform="matrix(1,0,0,1,0,0)" id="i93"><g id="i95"><g transform="translate(663.185,964.886)"><g transform="rotate(0)"><animateTransform repeatCount="indefinite" type="rotate" attributeName="transform" dur="5s" begin="0s" calcMode="spline" values="0; 0; -6; -6; 0; 0" keyTimes="0; 0.258333; 0.525; 0.8; 0.983333; 1" keySplines="0 0 1 1; 0.333 0 0.12 1; 0.167 0 0.667 1; 0.545 0 0.667 1; 0 0 1 1" fill="freeze" /><g transform="scale(1,1) translate(-28,-50)"><g transform="matrix(1,0,0,1,239.394,108.086)" id="i104"><g id="i104"><path d="M-202.63,-157.329C-211.75,-149.225,-196.852,-117.717,-166.684,-55.03C-148.116,-16.447,-138.832,2.844,-132.469,11.428C-98.207,57.649,-36.394,96.921,29.91,100.087C75.409,102.259,83.836,85.559,120.277,95.588C175.25,110.717,202.279,161.439,205.074,159.206C208.162,156.738,178.311,92.308,111.014,34.183C55.95,-13.376,38.515,-2.558,-48.827,-69.572C-55.164,-74.434,-81.975,-95.132,-120.124,-119.25C-164.973,-147.603,-193.557,-165.392,-202.63,-157.329Z" fill="url(#i60)"><animate repeatCount="indefinite" attributeName="d" dur="5s" begin="0s" calcMode="spline" values="M-202.63,-157.329C-211.75,-149.225,-196.852,-117.717,-166.684,-55.03C-148.116,-16.447,-138.832,2.844,-132.469,11.428C-98.207,57.649,-36.394,96.921,29.91,100.087C75.409,102.259,83.836,85.559,120.277,95.588C175.25,110.717,202.279,161.439,205.074,159.206C208.162,156.738,178.311,92.308,111.014,34.183C55.95,-13.376,38.515,-2.558,-48.827,-69.572C-55.164,-74.434,-81.975,-95.132,-120.124,-119.25C-164.973,-147.603,-193.557,-165.392,-202.63,-157.329Z; M-202.63,-157.329C-211.75,-149.225,-206.852,-101.717,-176.684,-39.03C-158.116,-0.447,-148.832,18.844,-142.469,27.428C-108.207,73.649,-58.393,121.921,7.911,125.087C53.41,127.259,76.836,110.559,113.277,120.588C168.25,135.717,202.279,161.439,205.074,159.206C208.162,156.738,178.311,92.308,111.014,34.183C55.95,-13.376,38.515,-2.558,-48.827,-69.572C-55.164,-74.434,-81.975,-95.132,-120.124,-119.25C-164.973,-147.603,-193.557,-165.392,-202.63,-157.329Z; M-202.63,-157.329C-211.75,-149.225,-196.852,-117.717,-166.684,-55.03C-148.116,-16.447,-138.832,2.844,-132.469,11.428C-98.207,57.649,-36.394,96.921,29.91,100.087C75.409,102.259,83.836,85.559,120.277,95.588C175.25,110.717,202.279,161.439,205.074,159.206C208.162,156.738,178.311,92.308,111.014,34.183C55.95,-13.376,38.515,-2.558,-48.827,-69.572C-55.164,-74.434,-81.975,-95.132,-120.124,-119.25C-164.973,-147.603,-193.557,-165.392,-202.63,-157.329Z; M-202.63,-157.329C-211.75,-149.225,-196.852,-117.717,-166.684,-55.03C-148.116,-16.447,-138.832,2.844,-132.469,11.428C-98.207,57.649,-36.394,96.921,29.91,100.087C75.409,102.259,83.836,85.559,120.277,95.588C175.25,110.717,202.279,161.439,205.074,159.206C208.162,156.738,178.311,92.308,111.014,34.183C55.95,-13.376,38.515,-2.558,-48.827,-69.572C-55.164,-74.434,-81.975,-95.132,-120.124,-119.25C-164.973,-147.603,-193.557,-165.392,-202.63,-157.329Z" keyTimes="0; 0.25; 0.5; 1" keySplines="0.333 0 0.667 1; 0.333 0 0.667 1; 0 0 1 1" fill="freeze" /></path></g></g></g></g></g></g></g></svg>